<svg xmlns="http://www.w3.org/2000/svg" width="16" height="16" viewBox="0 0 16 16"><defs><style>.a{fill:#fff;}</style></defs><g transform="translate(-3.375 -3.375)"><path class="a" d="M18.631,12.953l-.673-.7a.144.144,0,0,0-.107-.046h0a.138.138,0,0,0-.107.046l-4.668,4.753-1.7-1.717a.147.147,0,0,0-.214,0l-.681.688a.155.155,0,0,0,0,.22l2.143,2.166a.675.675,0,0,0,.448.22.707.707,0,0,0,.444-.213h0l5.116-5.2A.167.167,0,0,0,18.631,12.953Z" transform="translate(-3.177 -4.018)"/><path class="a" d="M11.375,4.452a6.92,6.92,0,1,1-4.9,2.027,6.877,6.877,0,0,1,4.9-2.027m0-1.077a8,8,0,1,0,8,8,8,8,0,0,0-8-8Z"/></g></svg>