<svg xmlns="http://www.w3.org/2000/svg" xmlns:xlink="http://www.w3.org/1999/xlink" width="53" height="53" viewBox="0 0 53 53"><defs><style>.a{fill:#e24c4b;}.b{fill:#d1403f;}.c{fill:#fff;}.d{filter:url(#a);}</style><filter id="a" x="0" y="0" width="53" height="53" filterUnits="userSpaceOnUse"><feOffset dy="3" input="SourceAlpha"/><feGaussianBlur stdDeviation="3" result="b"/><feFlood flood-opacity="0.161"/><feComposite operator="in" in2="b"/><feComposite in="SourceGraphic"/></filter></defs><g transform="translate(9 6.2)"><g class="d" transform="matrix(1, 0, 0, 1, -9, -6.2)"><circle class="a" cx="17.5" cy="17.5" r="17.5" transform="translate(9 6)"/></g><path class="b" d="M80.816,63.341A17.444,17.444,0,0,1,63.391,80.7a17.171,17.171,0,0,1-13.614-6.51,17.233,17.233,0,0,0,10.891,3.8,17.444,17.444,0,0,0,17.426-17.36,17.087,17.087,0,0,0-3.812-10.85A17.058,17.058,0,0,1,80.816,63.341Z" transform="translate(-45.816 -45.901)"/><path class="c" d="M130.928,130.928a1.418,1.418,0,0,1-1.987,0l-4.606-4.606-4.606,4.606a1.405,1.405,0,0,1-1.987-1.987l4.606-4.606-4.606-4.606a1.405,1.405,0,0,1,1.987-1.987l4.606,4.606,4.606-4.606a1.405,1.405,0,0,1,1.987,1.987l-4.606,4.606,4.606,4.606A1.418,1.418,0,0,1,130.928,130.928Z" transform="translate(-106.334 -106.535)"/></g></svg>