<svg xmlns="http://www.w3.org/2000/svg" xmlns:xlink="http://www.w3.org/1999/xlink" width="192.465" height="126.19" viewBox="0 0 192.465 126.19"><defs><style>.a{fill:none;}.b{opacity:0.65;}.c{fill:url(#a);}.d{clip-path:url(#b);}.e{fill:url(#c);}.f{fill:url(#d);}.g{fill:url(#e);}.h{fill:url(#f);}.i{fill:url(#g);}.j{fill:#fff399;}.k{fill:url(#h);}.l{fill:url(#i);}.m{fill:url(#j);}.n{opacity:0.9;}.o{fill:url(#k);}.p{clip-path:url(#l);}.q{fill:url(#m);}.r{fill:url(#n);}.s{fill:url(#o);}.t{fill:url(#p);}.u,.y{mix-blend-mode:multiply;isolation:isolate;}.u{fill:url(#q);}.v{fill:#f9bb23;}.w{fill:url(#r);}.x{fill:url(#s);}.y{fill:url(#t);}.z{opacity:0.75;}.aa{fill:url(#u);}.ab{fill:url(#v);}.ac{fill:url(#w);}.ad{fill:url(#x);}.ae{clip-path:url(#y);}.af{fill:url(#z);}.ag{fill:url(#aa);}.ah{fill:url(#ab);}.ai{fill:url(#ac);}.aj{fill:url(#ad);}.ak{fill:url(#ae);}.al{fill:url(#af);}.am{fill:url(#ag);}.an{fill:url(#ah);}.ao{clip-path:url(#ai);}.ap{fill:url(#aj);}.aq{fill:url(#ak);}.ar{fill:url(#al);}.as{fill:url(#am);}.at{fill:url(#an);}.au{fill:url(#ao);}.av{fill:url(#ap);}.aw{fill:url(#aq);}.ax{fill:url(#ar);}.ay{clip-path:url(#as);}.az{fill:url(#at);}.ba{fill:url(#au);}.bb{fill:url(#av);}.bc{fill:url(#aw);}.bd{fill:url(#ax);}.be{fill:url(#ay);}.bf{fill:url(#az);}.bg{fill:url(#ba);}.bh{fill:url(#bb);}.bi{clip-path:url(#bc);}.bj{fill:url(#bd);}.bk{fill:url(#be);}.bl{fill:url(#bf);}.bm{fill:url(#bg);}.bn{clip-path:url(#bh);}.bo{opacity:0.3;}.bp{fill:#fff;}.bq{opacity:0.25;}.br{fill:url(#bi);}.bs{fill:url(#bl);}.bt{fill:url(#bm);}.bu{fill:url(#bn);}.bv{fill:url(#bo);}.bw{clip-path:url(#bp);}.bx{fill:url(#bq);}.by{fill:url(#br);}.bz{fill:url(#bs);}.ca{fill:url(#bt);}.cb{fill:url(#bu);}.cc{fill:url(#bv);}.cd{fill:url(#bw);}.ce{fill:url(#bx);}.cf{filter:url(#bj);}</style><linearGradient id="a" x1="11.139" y1="15.173" x2="12.207" y2="15.173" gradientUnits="objectBoundingBox"><stop offset="0" stop-color="#e8a928"/><stop offset="0.4" stop-color="#c8690f"/><stop offset="0.6" stop-color="#c8690f"/><stop offset="0.962" stop-color="#f8c935"/></linearGradient><clipPath id="b"><path class="a" d="M555.357,665.025c-2.186,3.052-9.017,1.867-15.195-2.557s-9.482-10.58-7.3-13.632l2.336-3.073,22.368,16.02Z" transform="translate(-532.191 -645.763)"/></clipPath><linearGradient id="c" x1="10.654" y1="14.838" x2="11.643" y2="14.838" gradientUnits="objectBoundingBox"><stop offset="0.032" stop-color="#e8b328"/><stop offset="0.4" stop-color="#e1800f"/><stop offset="0.6" stop-color="#e1800f"/><stop offset="0.924" stop-color="#f8d335"/></linearGradient><linearGradient id="d" x1="10.655" y1="14.835" x2="11.644" y2="14.835" gradientUnits="objectBoundingBox"><stop offset="0" stop-color="#d8891b"/><stop offset="0.4" stop-color="#b75d0f"/><stop offset="0.6" stop-color="#b75d0f"/><stop offset="1" stop-color="#e4af2c"/></linearGradient><linearGradient id="e" x1="21.753" y1="12.012" x2="21.753" y2="12.89" gradientUnits="objectBoundingBox"><stop offset="0" stop-color="#f8e765"/><stop offset="1" stop-color="#f2b52d" stop-opacity="0.8"/></linearGradient><linearGradient id="f" x1="13.071" y1="17.35" x2="13.071" y2="18.586" gradientUnits="objectBoundingBox"><stop offset="0" stop-color="#ffff82"/><stop offset="1" stop-color="#ffd83b"/></linearGradient><linearGradient id="g" x1="11.454" y1="15.872" x2="11.874" y2="14.544" gradientUnits="objectBoundingBox"><stop offset="0.216" stop-color="#fff37d" stop-opacity="0"/><stop offset="0.67" stop-color="#fff" stop-opacity="0.702"/><stop offset="1" stop-color="#fff37d" stop-opacity="0"/></linearGradient><linearGradient id="h" x1="17.28" y1="23.412" x2="17.28" y2="24.615" gradientUnits="objectBoundingBox"><stop offset="0" stop-color="#f8e253"/><stop offset="1" stop-color="#f7c332"/></linearGradient><linearGradient id="i" x1="17.572" y1="25.763" x2="17.572" y2="25.08" gradientUnits="objectBoundingBox"><stop offset="0" stop-color="#f8c935"/><stop offset="1" stop-color="#c8690f"/></linearGradient><linearGradient id="j" x1="17.109" y1="24.593" x2="17.451" y2="23.435" gradientUnits="objectBoundingBox"><stop offset="0.216" stop-color="#fff37d" stop-opacity="0"/><stop offset="0.292" stop-color="#fff381" stop-opacity="0.016"/><stop offset="0.368" stop-color="#fff48d" stop-opacity="0.063"/><stop offset="0.444" stop-color="#fff6a1" stop-opacity="0.141"/><stop offset="0.52" stop-color="#fff9be" stop-opacity="0.251"/><stop offset="0.595" stop-color="#fffce2" stop-opacity="0.392"/><stop offset="0.645" stop-color="#fff" stop-opacity="0.502"/><stop offset="0.672" stop-color="#fffdee" stop-opacity="0.439"/><stop offset="0.765" stop-color="#fff9be" stop-opacity="0.251"/><stop offset="0.846" stop-color="#fff59a" stop-opacity="0.114"/><stop offset="0.913" stop-color="#fff384" stop-opacity="0.031"/><stop offset="0.957" stop-color="#fff37d" stop-opacity="0"/></linearGradient><linearGradient id="k" x1="-19.737" y1="-45.632" x2="-18.669" y2="-45.632" gradientUnits="objectBoundingBox"><stop offset="0" stop-color="#c8690f"/><stop offset="0.4" stop-color="#e8a928"/><stop offset="0.6" stop-color="#f8c935"/><stop offset="1" stop-color="#c8690f"/></linearGradient><clipPath id="l"><path class="a" d="M321.728,665.2c3.375-4.11,11.181-3.543,17.275,1.462s8.171,12.551,4.8,16.661l-1.652,2.012L320.08,667.211Z" transform="translate(-320.08 -662.466)"/></clipPath><linearGradient id="m" x1="-17.643" y1="-40.797" x2="-16.707" y2="-40.797" gradientUnits="objectBoundingBox"><stop offset="0" stop-color="#e1800f"/><stop offset="0.4" stop-color="#e8b328"/><stop offset="0.6" stop-color="#f8d335"/><stop offset="1" stop-color="#e1800f"/></linearGradient><linearGradient id="n" x1="-17.635" y1="-40.795" x2="-16.699" y2="-40.795" gradientUnits="objectBoundingBox"><stop offset="0" stop-color="#b75d0f"/><stop offset="0.4" stop-color="#d8891b"/><stop offset="0.6" stop-color="#e4af2c"/><stop offset="1" stop-color="#b75d0f"/></linearGradient><linearGradient id="o" x1="-26.828" y1="-40.942" x2="-26.828" y2="-40.064" xlink:href="#e"/><linearGradient id="p" x1="-21.058" y1="-51.709" x2="-21.058" y2="-50.643" gradientUnits="objectBoundingBox"><stop offset="0" stop-color="#f7ba29"/><stop offset="1" stop-color="#ee9613"/></linearGradient><linearGradient id="q" x1="3.722" y1="3.944" x2="3.042" y2="4.663" gradientUnits="objectBoundingBox"><stop offset="0.049" stop-color="#fff37d" stop-opacity="0"/><stop offset="0.18" stop-color="#fbe269" stop-opacity="0.09"/><stop offset="0.45" stop-color="#f4b738" stop-opacity="0.322"/><stop offset="0.639" stop-color="#ee9613" stop-opacity="0.502"/><stop offset="0.696" stop-color="#ef9e1d" stop-opacity="0.451"/><stop offset="0.797" stop-color="#f3b638" stop-opacity="0.325"/><stop offset="0.929" stop-color="#fadc63" stop-opacity="0.122"/><stop offset="1" stop-color="#fff37d" stop-opacity="0"/></linearGradient><linearGradient id="r" x1="-28.418" y1="-69.835" x2="-28.418" y2="-68.795" gradientUnits="objectBoundingBox"><stop offset="0" stop-color="#ee9613"/><stop offset="1" stop-color="#c8690f"/></linearGradient><linearGradient id="s" x1="-29.747" y1="-76.11" x2="-29.747" y2="-76.715" gradientUnits="objectBoundingBox"><stop offset="0" stop-color="#af4e0f"/><stop offset="1" stop-color="#c8690f"/></linearGradient><linearGradient id="t" x1="5.03" y1="5.92" x2="4.415" y2="6.587" xlink:href="#q"/><linearGradient id="u" x1="-8.88" y1="-28.964" x2="-7.731" y2="-28.964" xlink:href="#a"/><linearGradient id="v" x1="-8.918" y1="-12.211" x2="-7.832" y2="-12.211" xlink:href="#c"/><linearGradient id="w" x1="-8.916" y1="-12.206" x2="-7.831" y2="-12.206" xlink:href="#d"/><linearGradient id="x" x1="12.963" y1="-4.529" x2="14.045" y2="-4.529" xlink:href="#a"/><clipPath id="y"><path class="a" d="M423.131,725.766c-5.92,5.412-16.3,2.821-23.729-5.3s-9.077-18.695-3.157-24.107l2.9-2.65,26.88,29.4Z" transform="translate(-392.659 -693.708)"/></clipPath><linearGradient id="z" x1="11.862" y1="-3.842" x2="12.818" y2="-3.842" xlink:href="#c"/><linearGradient id="aa" x1="11.863" y1="-3.845" x2="12.82" y2="-3.845" xlink:href="#d"/><linearGradient id="ab" x1="16.945" y1="-4.702" x2="16.945" y2="-3.824" xlink:href="#e"/><linearGradient id="ac" x1="17.571" y1="-4.856" x2="17.571" y2="-3.983" xlink:href="#f"/><linearGradient id="ad" x1="13.309" y1="-3.997" x2="13.684" y2="-5.005" xlink:href="#g"/><linearGradient id="ae" x1="24.119" y1="-6.46" x2="24.119" y2="-5.622" xlink:href="#h"/><linearGradient id="af" x1="21.638" y1="-7.415" x2="21.638" y2="-7.957" xlink:href="#i"/><linearGradient id="ag" x1="23.908" y1="-5.638" x2="24.33" y2="-6.445" xlink:href="#j"/><linearGradient id="ah" x1="6.349" y1="0.685" x2="7.338" y2="0.685" xlink:href="#a"/><clipPath id="ai"><path class="a" d="M378.478,641.408c-2.344,5.32-9.987,6.637-17.285,3.422s-11.485-9.743-9.141-15.064l1.607-3.515,26.421,11.639Z" transform="translate(-351.401 -626.252)"/></clipPath><linearGradient id="aj" x1="5.966" y1="0.775" x2="6.861" y2="0.775" xlink:href="#c"/><linearGradient id="ak" x1="5.966" y1="0.772" x2="6.861" y2="0.772" xlink:href="#d"/><linearGradient id="al" x1="9.276" y1="0.21" x2="9.276" y2="1.089" xlink:href="#e"/><linearGradient id="am" x1="9.61" y1="0.216" x2="9.61" y2="1.089" xlink:href="#f"/><linearGradient id="an" x1="6.658" y1="1.278" x2="7.015" y2="0.155" xlink:href="#g"/><linearGradient id="ao" x1="9.665" y1="0.211" x2="9.665" y2="1.324" xlink:href="#h"/><linearGradient id="ap" x1="9.789" y1="1.011" x2="9.789" y2="0.266" xlink:href="#i"/><linearGradient id="aq" x1="9.511" y1="1.303" x2="9.818" y2="0.232" xlink:href="#j"/><linearGradient id="ar" x1="-10.555" y1="2.065" x2="-9.474" y2="2.065" xlink:href="#a"/><clipPath id="as"><path class="a" d="M490.852,665.1c2.841,3.652-.951,11.309-8.343,17.06s-15.823,7.5-18.664,3.849l-2.813-3.837,26.764-20.824Z" transform="translate(-461.031 -661.347)"/></clipPath><linearGradient id="at" x1="-10.03" y1="2.146" x2="-9.028" y2="2.146" xlink:href="#c"/><linearGradient id="au" x1="-10.029" y1="2.149" x2="-9.027" y2="2.149" xlink:href="#d"/><linearGradient id="av" x1="-9.248" y1="2.122" x2="-9.248" y2="3.899" xlink:href="#e"/><linearGradient id="aw" x1="-9.561" y1="2.211" x2="-9.561" y2="3.988" xlink:href="#f"/><linearGradient id="ax" x1="-10.235" y1="2.749" x2="-9.811" y2="1.448" xlink:href="#g"/><linearGradient id="ay" x1="-15.401" y1="2.275" x2="-15.401" y2="3.442" xlink:href="#h"/><linearGradient id="az" x1="-15.734" y1="3.07" x2="-15.734" y2="2.414" xlink:href="#i"/><linearGradient id="ba" x1="-15.575" y1="3.42" x2="-15.226" y2="2.296" xlink:href="#j"/><linearGradient id="bb" x1="3.749" y1="0.012" x2="4.738" y2="0.012" xlink:href="#a"/><clipPath id="bc"><path class="a" d="M450.178,584.763c1.15,9.7-6.955,17.911-18,19.221s-20.846-4.779-22-14.477l-.563-4.746,39.988-4.744Z" transform="translate(-409.619 -580.017)"/></clipPath><linearGradient id="bd" x1="-7.734" y1="-0.657" x2="-6.665" y2="-0.657" xlink:href="#c"/><linearGradient id="be" x1="-7.735" y1="-0.652" x2="-6.666" y2="-0.652" xlink:href="#d"/><linearGradient id="bf" x1="4.291" y1="-0.539" x2="4.291" y2="0.461" xlink:href="#e"/><linearGradient id="bg" x1="4.414" y1="-0.56" x2="4.414" y2="0.44" xlink:href="#f"/><clipPath id="bh"><ellipse class="a" cx="19.508" cy="17.03" rx="19.508" ry="17.03" transform="translate(0 4.596) rotate(-6.765)"/></clipPath><linearGradient id="bi" x1="4.065" y1="0.53" x2="4.408" y2="-0.453" xlink:href="#g"/><filter id="bj" x="70.586" y="0" width="58.721" height="57.017" filterUnits="userSpaceOnUse"><feOffset dy="3" input="SourceAlpha"/><feGaussianBlur stdDeviation="3" result="bk"/><feFlood flood-color="#ffc748"/><feComposite operator="in" in2="bk"/><feComposite in="SourceGraphic"/></filter><linearGradient id="bl" x1="5.713" y1="-0.771" x2="5.713" y2="0.226" xlink:href="#h"/><linearGradient id="bm" x1="5.716" y1="-0.404" x2="5.716" y2="-1.285" xlink:href="#i"/><linearGradient id="bn" x1="5.566" y1="0.207" x2="5.86" y2="-0.752" xlink:href="#j"/><linearGradient id="bo" x1="6.259" y1="-6.747" x2="7.242" y2="-6.747" xlink:href="#a"/><clipPath id="bp"><path class="a" d="M541.905,519.016c-1.2,4.129-7.8,5.8-14.661,3.805s-11.531-7.033-10.329-11.162l1.336-4.215,24.831,7.232Z" transform="translate(-516.727 -507.444)"/></clipPath><linearGradient id="bq" x1="6.111" y1="-8.063" x2="7.04" y2="-8.063" xlink:href="#c"/><linearGradient id="br" x1="6.111" y1="-8.065" x2="7.04" y2="-8.065" xlink:href="#d"/><linearGradient id="bs" x1="7.042" y1="-9.279" x2="7.042" y2="-7.912" xlink:href="#e"/><linearGradient id="bt" x1="7.253" y1="-9.62" x2="7.253" y2="-8.254" xlink:href="#f"/><linearGradient id="bu" x1="6.55" y1="-6.032" x2="6.936" y2="-7.39" xlink:href="#g"/><linearGradient id="bv" x1="15.717" y1="-7.938" x2="15.717" y2="-7.1" xlink:href="#h"/><linearGradient id="bw" x1="9.509" y1="-16.508" x2="9.509" y2="-17.463" xlink:href="#i"/><linearGradient id="bx" x1="15.462" y1="-7.116" x2="15.973" y2="-7.923" xlink:href="#j"/></defs><g transform="translate(-8107.396 1254.278)"><g class="b" transform="translate(8269.573 -1155.163)"><g transform="translate(0 0)"><g transform="translate(0)"><path class="c" d="M557.467,661.125c2.186-3.052-1.05-9.113-7.228-13.537s-12.958-5.538-15.144-2.485l-2.229,2.923c-2.186,3.052,1.119,9.207,7.3,13.632s13.008,5.61,15.195,2.557l2.05-3.015C557.427,661.174,557.449,661.151,557.467,661.125Z" transform="translate(-531.137 -639.576)"/><g transform="translate(1.054 5.376)"><g class="d"><path class="e" d="M528.264,654.783l-.3-.213,5.377-7.508.3.213ZM534.1,647.6l-.3-.213-5.377,7.508.3.214Zm.554.4-.3-.213-5.377,7.508.3.214Zm.624.447-.3-.213L529.6,655.74l.3.214Zm.669.479-.3-.213-5.377,7.508.3.213Zm.763.546-.3-.214-5.377,7.508.3.213Zm.866.62-.3-.214-5.377,7.508.3.213Zm.965.69-.3-.213-5.377,7.508.3.213Zm1.039.744-.3-.213-5.377,7.508.3.213Zm1.219.873-.3-.213-5.377,7.508.3.213Zm1.373.984-.3-.214-5.377,7.508.3.213Zm1.5,1.073-.3-.213-5.377,7.508.3.213Zm11.725,8.4-.3-.213-5.377,7.508.3.213Zm-.455-.325-.3-.214-5.377,7.508.3.213Zm-.555-.4-.3-.214-5.377,7.508.3.213Zm-.624-.447-.3-.214-5.377,7.508.3.213Zm-.669-.479-.3-.213-5.377,7.508.3.213Zm-.763-.546-.3-.213-5.377,7.508.3.214Zm-.867-.62-.3-.213-5.377,7.508.3.213Zm-.964-.691-.3-.213-5.377,7.508.3.213Zm-1.039-.744-.3-.213-5.377,7.508.3.213Zm-1.219-.873-.3-.213-5.377,7.508.3.213Zm-1.373-.983-.3-.213-5.377,7.508.3.214Zm-1.5-1.073-.3-.214-5.377,7.508.3.213Z" transform="translate(-530.754 -646.205)"/><path class="f" d="M528.413,654.89l-.3-.213,5.377-7.508.3.213Zm5.832-7.182-.3-.213L528.57,655l.3.213Zm.554.4-.3-.213-5.377,7.508.3.214Zm.625.448-.3-.213-5.377,7.508.3.214Zm.669.479-.3-.213-5.377,7.508.3.214Zm.762.546-.3-.213-5.377,7.508.3.213Zm.867.62-.3-.213-5.377,7.508.3.213Zm.964.69-.3-.213-5.377,7.508.3.213Zm1.039.744-.3-.213-5.377,7.508.3.213Zm1.22.874-.3-.214L535.27,659.8l.3.213Zm1.373.983-.3-.214-5.377,7.508.3.213Zm1.5,1.073-.3-.213-5.377,7.508.3.214Zm11.725,8.4-.3-.213-5.377,7.508.3.213Zm-.455-.325-.3-.214-5.377,7.508.3.213Zm-.554-.4-.3-.213-5.377,7.508.3.213Zm-.625-.447-.3-.213-5.377,7.507.3.213Zm-.668-.479-.3-.213-5.377,7.508.3.214Zm-.763-.547-.3-.213L546.8,668.06l.3.214Zm-.867-.62-.3-.213-5.377,7.508.3.214Zm-.964-.69-.3-.214-5.377,7.508.3.213Zm-1.039-.745-.3-.213L543.931,666l.3.213Zm-1.219-.873-.3-.213-5.377,7.508.3.213Zm-1.373-.983-.3-.213-5.377,7.508.3.213Zm-1.5-1.073-.3-.213-5.377,7.508.3.214Z" transform="translate(-530.805 -646.241)"/></g></g><ellipse class="g" cx="6.797" cy="13.759" rx="6.797" ry="13.759" transform="matrix(0.582, -0.813, 0.813, 0.582, 0, 11.052)"/><path class="h" d="M558.537,660.929c-2.105,2.939-8.663,1.847-14.648-2.438s-9.13-10.143-7.024-13.083,8.663-1.848,14.648,2.439S560.642,657.989,558.537,660.929Z" transform="translate(-532.504 -639.705)"/><path class="i" d="M557.467,661.125c2.186-3.052-1.05-9.113-7.228-13.537s-12.958-5.538-15.144-2.485l-2.229,2.923c-2.186,3.052,1.119,9.207,7.3,13.632s13.008,5.61,15.195,2.557l2.05-3.015C557.427,661.174,557.449,661.151,557.467,661.125Z" transform="translate(-531.137 -639.576)"/><ellipse class="j" cx="4.814" cy="10.029" rx="4.814" ry="10.029" transform="matrix(0.582, -0.813, 0.813, 0.582, 4.236, 11.544)"/><path class="k" d="M546.5,658.167c-4.5-3.22-6.918-7.564-5.4-9.685s6.411-1.226,10.907,1.994,6.918,7.564,5.4,9.685S551,661.387,546.5,658.167Z" transform="translate(-534.013 -640.92)"/><path class="l" d="M551.935,650.8c4.33,3.1,6.631,7.389,5.446,9.586a2.184,2.184,0,0,0,.182-.221c1.519-2.12-.9-6.465-5.4-9.685s-9.388-4.114-10.907-1.994a2.217,2.217,0,0,0-.15.244C542.8,646.9,547.6,647.695,551.935,650.8Z" transform="translate(-534.169 -640.92)"/></g><path class="m" d="M546.5,658.167c-4.5-3.22-6.918-7.564-5.4-9.685s6.411-1.226,10.907,1.994,6.918,7.564,5.4,9.685S551,661.387,546.5,658.167Z" transform="translate(-534.013 -640.92)"/></g></g><g class="n" transform="translate(8107.396 -1192.036)"><g transform="translate(0 0)"><path class="o" d="M319.511,667.005c-3.375,4.11-1.17,11.5,4.924,16.5s13.772,5.729,17.147,1.619l1.486-1.81c3.375-4.11,1.3-11.657-4.8-16.661s-13.9-5.572-17.275-1.462l-1.4,1.708C319.571,666.939,319.54,666.97,319.511,667.005Z" transform="translate(-313.4 -659.563)"/><g transform="translate(5.949 2.903)"><g class="p"><path class="q" d="M351.414,670.626l.294.241-8.3,10.111-.294-.242Zm-8.752,9.742.294.241,8.3-10.111-.294-.241Zm-.547-.449.294.242,8.3-10.111-.294-.241Zm-.616-.506.294.242,8.3-10.111-.294-.242Zm-.66-.542.294.242,8.3-10.111-.294-.242Zm-.753-.618.294.242,8.3-10.111-.294-.242Zm-.855-.7.294.241,8.3-10.111-.294-.241Zm-.951-.781.294.242,8.3-10.111-.294-.242Zm-1.026-.842.294.242,8.3-10.111-.294-.241Zm-1.2-.987.294.241,8.3-10.111-.294-.241Zm-1.354-1.113.294.242,8.3-10.111-.294-.242Zm-1.478-1.214.294.241,8.3-10.11-.294-.242Zm-11.568-9.5.294.241,8.3-10.11-.294-.241Zm.449.368.294.242,8.3-10.111-.294-.242Zm.547.45.294.242,8.3-10.111-.294-.242Zm.616.506.294.242,8.3-10.111-.294-.242Zm.66.542.294.241,8.3-10.111-.294-.242Zm.752.618.294.242,8.3-10.111-.294-.242Zm.855.7.294.241,8.3-10.111-.294-.241Zm.952.781.294.242,8.3-10.111-.294-.241Zm1.026.842.294.242,8.3-10.111-.294-.242Zm1.2.987.294.242,8.3-10.111-.294-.241Zm1.355,1.113.294.241,8.3-10.111-.294-.242Zm1.478,1.214.294.242,8.3-10.111-.294-.241Z" transform="translate(-320.615 -659.249)"/><path class="r" d="M351.266,670.5l.294.242-8.3,10.111-.294-.242Zm-8.751,9.742.294.242,8.3-10.111-.294-.241Zm-.547-.449.294.241,8.3-10.11-.294-.242Zm-.616-.506.294.242,8.3-10.111-.294-.242Zm-.66-.542.294.242,8.3-10.111-.294-.242Zm-.752-.618.294.241,8.3-10.111-.294-.241Zm-.855-.7.294.242,8.3-10.111-.294-.241Zm-.952-.781.294.241,8.3-10.11-.294-.242Zm-1.026-.842.294.242,8.3-10.111-.294-.242Zm-1.2-.988.294.242,8.3-10.111-.294-.242Zm-1.355-1.112.294.242,8.3-10.111-.294-.242Zm-1.478-1.214.294.241,8.3-10.111-.294-.241ZM321.5,663l.294.241,8.3-10.111-.294-.241Zm.449.368.294.242,8.3-10.111-.294-.242Zm.548.449.294.242,8.3-10.111-.294-.242Zm.616.506.294.241,8.3-10.111-.294-.241Zm.66.542.294.241,8.3-10.111-.294-.241Zm.753.618.294.242,8.3-10.111-.294-.242Zm.855.7.294.242,8.3-10.111-.294-.242Zm.951.781.294.241,8.3-10.111-.294-.242Zm1.026.842.294.242,8.3-10.111-.294-.242Zm1.2.987.294.242,8.3-10.111-.294-.242Zm1.354,1.113.294.241,8.3-10.111-.294-.241Zm1.478,1.214.294.242,8.3-10.111-.294-.242Z" transform="translate(-320.564 -659.208)"/></g></g><ellipse class="s" cx="9.629" cy="14.279" rx="9.629" ry="14.279" transform="matrix(0.635, -0.773, 0.773, 0.635, 0, 14.884)"/><path class="t" d="M319.944,668.609c3.25-3.958,10.671-3.237,16.575,1.61s8.055,11.987,4.805,15.945-10.671,3.238-16.575-1.61S316.694,672.567,319.944,668.609Z" transform="translate(-313.57 -660.783)"/><path class="u" d="M319.511,667.005c-3.375,4.11-1.17,11.5,4.924,16.5s13.772,5.729,17.147,1.619l1.486-1.81c3.375-4.11,1.3-11.657-4.8-16.661s-13.9-5.572-17.275-1.462l-1.4,1.708C319.571,666.939,319.54,666.97,319.511,667.005Z" transform="translate(-313.4 -659.563)"/><path class="v" d="M336.556,673.544c4.777,3.922,6.1,8.969,3.715,11.876s-7.937,2.309-12.371-1.334-6.1-8.969-3.716-11.875S331.78,669.622,336.556,673.544Z" transform="translate(-315.157 -662.22)"/><path class="w" d="M336.384,673.851c4.435,3.642,6.136,8.928,3.791,11.784s-7.861,2.216-12.3-1.426-6.136-8.928-3.791-11.783S331.949,670.209,336.384,673.851Z" transform="translate(-315.136 -662.343)"/><path class="x" d="M328.234,684.542c-4.272-3.508-5.846-8.734-3.873-11.651-.1.1-.187.195-.273.3-2.345,2.856-.644,8.142,3.791,11.783s9.951,4.282,12.3,1.426c.086-.106.165-.215.241-.327C337.938,688.577,332.506,688.051,328.234,684.542Z" transform="translate(-315.136 -663.108)"/><path class="y" d="M336.384,673.851c4.435,3.642,6.136,8.928,3.791,11.784s-7.861,2.216-12.3-1.426-6.136-8.928-3.791-11.783S331.949,670.209,336.384,673.851Z" transform="translate(-315.136 -662.343)"/></g></g><g class="z" transform="translate(8108.988 -1236.674)"><rect class="aa" width="30.475" height="7.137" transform="translate(0 10.161) rotate(-19.476)"/><path class="ab" d="M304.972,612.235l-.375.133-2.379-6.729.375-.133Zm-1.807-6.931-.375.133,2.38,6.729.375-.133Zm.7-.247-.375.133,2.38,6.729.375-.133Zm.787-.278-.375.133,2.38,6.728.375-.132Zm.842-.3-.375.133,2.38,6.728.375-.133Zm.96-.34-.376.133,2.38,6.729.375-.133Zm1.09-.385-.375.133,2.379,6.728.375-.133Zm1.214-.43-.375.133,2.38,6.729.375-.133Zm1.309-.463-.375.133,2.379,6.729.376-.133Zm1.535-.543-.375.133,2.38,6.728.375-.133Zm1.728-.611-.375.132,2.379,6.729.375-.133Zm1.886-.667-.375.133,2.38,6.728.375-.133Zm14.76-5.22-.375.133,2.38,6.729.375-.133Zm-.573.2-.375.133,2.38,6.729.375-.133Zm-.7.247-.375.133,2.38,6.729.375-.133Zm-.786.279-.375.133,2.379,6.728.375-.133Zm-.842.3-.375.133,2.379,6.729.375-.133Zm-.96.34-.375.133,2.379,6.728.376-.133Zm-1.091.385-.375.133,2.38,6.728.375-.133ZM323.81,598l-.375.133,2.379,6.729.376-.133Zm-1.309.463-.375.133,2.38,6.728.375-.133Zm-1.534.542-.375.133,2.379,6.728.375-.132Zm-1.728.611-.375.133,2.379,6.729.375-.133Zm-1.887.667-.375.133,2.38,6.729.375-.133Z" transform="translate(-301.798 -595.627)"/><path class="ac" d="M305.358,612.1l-.375.133L302.6,605.5l.375-.133Zm-1.806-6.931-.375.133,2.379,6.728.375-.133Zm.7-.247-.376.133,2.38,6.728.375-.133Zm.786-.278-.375.133,2.38,6.729.375-.133Zm.842-.3-.375.133,2.379,6.729.376-.133Zm.96-.339-.375.133,2.379,6.728.375-.133Zm1.09-.386-.375.133,2.38,6.729.375-.133Zm1.214-.429-.375.133,2.379,6.728.375-.133Zm1.308-.463-.375.133,2.38,6.728.375-.133Zm1.535-.543-.375.133,2.379,6.729.375-.133Zm1.728-.611-.375.133,2.38,6.728.375-.133Zm1.887-.667-.376.133,2.38,6.728.375-.132Zm14.76-5.219-.375.133,2.38,6.728.375-.133Zm-.573.2-.375.133,2.379,6.728.375-.133Zm-.7.247-.375.133L331.094,603l.375-.133Zm-.787.278-.375.133,2.38,6.729.375-.133Zm-.842.3-.375.133,2.38,6.729.375-.133Zm-.96.34-.375.133,2.38,6.728.375-.133Zm-1.09.385-.375.133,2.379,6.729.376-.133Zm-1.214.43-.376.133,2.38,6.728.375-.133Zm-1.309.463-.375.133,2.379,6.728.375-.132Zm-1.535.542-.375.133,2.38,6.729.375-.133Zm-1.728.612-.375.133,2.38,6.728.375-.133Zm-1.886.667-.375.133,2.379,6.729.375-.133Z" transform="translate(-301.929 -595.581)"/></g><g transform="translate(8159.586 -1181.629)"><g transform="translate(0 0)"><g transform="translate(0)"><path class="ad" d="M425.737,721.99c5.92-5.413,4.7-16.384-2.722-24.5s-18.242-10.316-24.163-4.9l-2.607,2.383c-5.92,5.412-4.267,15.987,3.157,24.107s17.809,10.713,23.729,5.3l2.452-2.251C425.634,722.077,425.687,722.036,425.737,721.99Z" transform="translate(-388.133 -682.782)"/><g transform="translate(4.526 9.534)"><g class="ae"><path class="af" d="M378.75,709.727l-.358-.391,14.564-13.315.358.392Zm15.111-12.716-.358-.391-14.564,13.315.358.391Zm.667.729-.358-.391-14.564,13.314.358.391Zm.751.821-.358-.391-14.564,13.314.358.392Zm.8.88-.358-.392L381.16,712.364l.358.391Zm.917,1-.358-.391-14.564,13.314.358.391Zm1.041,1.138-.358-.391L383.118,714.5l.358.392Zm1.159,1.268-.358-.391-14.564,13.314.358.392Zm1.249,1.366-.358-.391-14.564,13.315.358.391Zm1.465,1.6-.358-.392-14.564,13.315.358.391Zm1.65,1.8-.358-.392-14.564,13.315.358.391Zm1.8,1.97-.358-.392-14.564,13.315.358.391Zm14.091,15.412-.358-.392-14.564,13.315.358.391Zm-.547-.6-.358-.391-14.564,13.315.358.391Zm-.667-.729-.358-.392L403.319,736.6l.358.391Zm-.75-.822-.358-.391L402.568,735.78l.358.392Zm-.8-.879-.358-.391L401.764,734.9l.358.391Zm-.917-1-.358-.392L400.847,733.9l.358.391Zm-1.041-1.139-.358-.391L399.807,732.76l.358.392Zm-1.159-1.267-.358-.392-14.564,13.315.358.391ZM412.32,717.2l-.358-.391L397.4,730.126l.358.392Zm-1.465-1.6-.358-.392-14.564,13.315.358.391Zm-1.65-1.805-.358-.391-14.564,13.314.358.391Zm-1.8-1.97-.358-.391-14.564,13.315.358.392Z" transform="translate(-387.807 -694.495)"/><path class="ag" d="M378.93,709.924l-.358-.391,14.564-13.315.358.391Zm15.111-12.716-.358-.391-14.564,13.314.358.392Zm.667.729-.358-.392L379.786,710.86l.358.391Zm.751.821-.358-.391-14.564,13.314.358.391Zm.8.879-.358-.391L381.34,712.56l.358.392Zm.917,1-.358-.392-14.564,13.315.358.391Zm1.041,1.138-.358-.391L383.3,714.7l.358.391Zm1.159,1.268-.358-.392L384.457,715.97l.358.391Zm1.249,1.366-.358-.391-14.564,13.314.358.392Zm1.465,1.6-.358-.392-14.564,13.315.358.391Zm1.65,1.8-.358-.391-14.564,13.315.358.391Zm1.8,1.97-.358-.391-14.564,13.314.358.392Zm14.09,15.412-.358-.391-14.564,13.314.358.392Zm-.546-.6-.358-.391-14.564,13.314.358.392Zm-.667-.729-.358-.391L403.5,736.8l.358.392Zm-.751-.821-.358-.391-14.564,13.314.358.392Zm-.8-.879-.358-.392L401.944,735.1l.358.391Zm-.917-1-.358-.391L401.027,734.1l.358.391Zm-1.041-1.138-.358-.391-14.564,13.314.358.391Zm-1.159-1.268-.358-.391-14.564,13.314.358.392ZM412.5,717.4l-.358-.392-14.564,13.315.358.391Zm-1.465-1.6-.358-.391L396.113,728.72l.358.391Zm-1.65-1.8-.358-.392-14.564,13.315.358.391Zm-1.8-1.97-.358-.392-14.564,13.315.358.391Z" transform="translate(-387.868 -694.562)"/></g></g><ellipse class="ah" cx="14.525" cy="19.922" rx="14.525" ry="19.922" transform="matrix(0.738, -0.675, 0.675, 0.738, 0, 19.601)"/><ellipse class="ai" cx="13.988" cy="19.299" rx="13.988" ry="19.299" transform="translate(0.96 19.567) rotate(-42.434)"/><path class="aj" d="M425.737,721.99c5.92-5.413,4.7-16.384-2.722-24.5s-18.242-10.316-24.163-4.9l-2.607,2.383c-5.92,5.412-4.267,15.987,3.157,24.107s17.809,10.713,23.729,5.3l2.452-2.251C425.634,722.077,425.687,722.036,425.737,721.99Z" transform="translate(-388.133 -682.782)"/><ellipse class="j" cx="10.287" cy="14.521" rx="10.287" ry="14.521" transform="matrix(0.738, -0.675, 0.675, 0.738, 6.904, 20.608)"/><ellipse class="ak" cx="10.108" cy="14.521" rx="10.108" ry="14.521" transform="matrix(0.738, -0.675, 0.675, 0.738, 7.169, 20.365)"/><path class="al" d="M424.382,703.23c5.2,5.692,6.086,13.454,2.489,17.36.161-.123.319-.252.47-.391,4.113-3.76,3.065-11.628-2.338-17.537s-13.144-7.658-17.258-3.9c-.151.139-.294.285-.431.434C411.525,695.965,419.178,697.538,424.382,703.23Z" transform="translate(-393.116 -685.22)"/></g><ellipse class="am" cx="10.108" cy="14.521" rx="10.108" ry="14.521" transform="matrix(0.738, -0.675, 0.675, 0.738, 7.169, 20.365)"/></g></g><g transform="translate(8147.099 -1213.717)"><g transform="translate(0 0)"><g transform="translate(0)"><path class="an" d="M379.97,630.766c2.344-5.32-1.672-12.238-8.969-15.453s-15.113-1.508-17.456,3.813l-1.492,3.254c-2.344,5.32,1.844,11.849,9.141,15.064s14.941,1.9,17.285-3.422l1.428-3.121C379.927,630.854,379.951,630.812,379.97,630.766Z" transform="translate(-349.302 -609.493)"/><g transform="translate(2.099 9.371)"><g class="ao"><path class="ap" d="M342.175,642.9l-.352-.155,5.765-13.087.352.155Zm6.3-12.85-.352-.155-5.765,13.087.352.155Zm.655.289-.352-.155-5.765,13.087.352.155Zm.738.325-.352-.155-5.765,13.087.352.155Zm.79.348-.352-.155-5.765,13.087.352.155Zm.9.4-.352-.155-5.765,13.087.352.155Zm1.023.451-.352-.155-5.765,13.087.352.155Zm1.139.5-.352-.155-5.765,13.087.352.155Zm1.228.541-.352-.155-5.765,13.087.352.155Zm1.44.634-.352-.155-5.765,13.087.352.155Zm1.622.715-.352-.155L351.9,647.182l.352.155Zm1.77.78-.352-.155-5.765,13.087.352.155Zm13.849,6.1-.352-.155-5.765,13.087.352.155Zm-.538-.237-.352-.155-5.765,13.087.352.155Zm-.655-.289-.352-.155-5.765,13.087.352.155Zm-.738-.325-.352-.155-5.765,13.087.352.155Zm-.79-.348-.352-.155L364.8,652.864l.352.155Zm-.9-.4-.352-.155-5.765,13.087.352.155Zm-1.024-.451-.352-.155-5.765,13.087.352.155Zm-1.139-.5-.352-.155-5.765,13.087.352.155Zm-1.228-.541-.352-.155L360.5,650.974l.352.155Zm-1.44-.634-.352-.155-5.765,13.087.352.155Zm-1.622-.715-.352-.155-5.765,13.087.352.155Zm-1.77-.78-.352-.155-5.765,13.087.352.155Z" transform="translate(-345.768 -628.254)"/><path class="aq" d="M342.458,643.024l-.352-.155,5.765-13.087.352.155Zm6.3-12.851-.352-.155-5.765,13.087.352.155Zm.655.289-.352-.155L343.3,643.395l.352.155Zm.738.325-.352-.155-5.765,13.087.352.155Zm.79.348-.352-.155-5.765,13.087.352.155Zm.9.4-.352-.155-5.765,13.087.352.155Zm1.023.451-.352-.155-5.765,13.087.352.155Zm1.139.5-.352-.155-5.765,13.087.352.155Zm1.228.541-.352-.155-5.765,13.087.352.155Zm1.44.634-.352-.155-5.765,13.087.352.155Zm1.622.715-.352-.155-5.765,13.087.352.155Zm1.77.78-.352-.155-5.765,13.087.352.155Zm13.849,6.1-.352-.155L367.8,654.188l.352.155Zm-.538-.236-.352-.155-5.765,13.087.352.155Zm-.655-.289-.352-.155-5.765,13.087.352.155Zm-.738-.325-.352-.155-5.765,13.087.352.155Zm-.79-.348-.352-.155-5.765,13.087.352.155Zm-.9-.4-.352-.155-5.765,13.087.352.155Zm-1.023-.451-.352-.155-5.765,13.087.352.155Zm-1.139-.5-.352-.155-5.765,13.087.352.155Zm-1.227-.541-.352-.155L360.787,651.1l.352.155Zm-1.44-.634-.352-.155-5.765,13.087.352.155Zm-1.622-.715-.352-.155-5.765,13.087.352.155Zm-1.77-.78-.352-.155-5.765,13.087.352.155Z" transform="translate(-345.935 -628.328)"/></g></g><ellipse class="ar" cx="10.526" cy="14.438" rx="10.526" ry="14.438" transform="translate(0 19.265) rotate(-66.225)"/><ellipse class="as" cx="10.137" cy="13.986" rx="10.137" ry="13.986" transform="matrix(0.403, -0.915, 0.915, 0.403, 0.627, 18.963)"/><path class="at" d="M379.97,630.766c2.344-5.32-1.672-12.238-8.969-15.453s-15.113-1.508-17.456,3.813l-1.492,3.254c-2.344,5.32,1.844,11.849,9.141,15.064s14.941,1.9,17.285-3.422l1.428-3.121C379.927,630.854,379.951,630.812,379.97,630.766Z" transform="translate(-349.302 -609.493)"/><ellipse class="j" cx="7.455" cy="10.523" rx="7.455" ry="10.523" transform="translate(4.872 17.915) rotate(-66.225)"/><path class="au" d="M371.6,635.821c-5.311-2.339-8.306-7.249-6.678-10.946s7.273-4.8,12.584-2.461,8.306,7.249,6.677,10.946S376.912,638.161,371.6,635.821Z" transform="translate(-356.993 -613.902)"/><path class="av" d="M377.668,622.973c5.115,2.253,7.969,7.142,6.726,10.784.07-.129.138-.26.2-.4,1.628-3.7-1.367-8.607-6.677-10.946s-10.955-1.235-12.584,2.461c-.06.136-.112.274-.159.414C367.018,621.914,372.553,620.72,377.668,622.973Z" transform="translate(-357.4 -613.902)"/></g><path class="aw" d="M371.6,635.821c-5.311-2.339-8.306-7.249-6.678-10.946s7.273-4.8,12.584-2.461,8.306,7.249,6.677,10.946S376.912,638.161,371.6,635.821Z" transform="translate(-356.993 -613.902)"/></g></g><g transform="translate(8212.539 -1203.795)"><g transform="translate(0 0)"><g transform="translate(0)"><path class="ax" d="M487.083,659.694c-2.842-3.652-11.137-1.95-18.529,3.8s-11.081,13.374-8.24,17.026l2.673,3.657c2.841,3.652,11.272,1.9,18.664-3.849s11.184-13.409,8.343-17.06l-2.845-3.479C487.127,659.758,487.107,659.725,487.083,659.694Z" transform="translate(-455.17 -653.082)"/><g transform="translate(5.005 6.437)"><g class="ay"><path class="az" d="M470.148,692.823l-.356.277-6.989-8.984.356-.277Zm-6.445-9.407-.356.277,6.99,8.984.357-.277Zm.664-.517-.356.278L471,692.16l.356-.278Zm.747-.581-.356.277,6.989,8.984.357-.278Zm.8-.623-.356.278,6.99,8.984.356-.278Zm.912-.71-.356.278,6.989,8.984.357-.278Zm1.037-.806-.356.277,6.989,8.984.356-.278Zm1.154-.9-.356.277,6.989,8.984.356-.278Zm1.244-.968-.357.277,6.99,8.984.356-.278Zm1.458-1.135-.356.278,6.989,8.983.357-.277Zm1.643-1.278-.356.277,6.99,8.984.356-.277Zm1.793-1.4-.356.278,6.989,8.984.356-.277Zm14.029-10.916-.357.278,6.99,8.984.356-.278Zm-.544.424-.357.277,6.99,8.984.356-.277Zm-.664.517-.356.277,6.99,8.984.356-.278Zm-.747.581-.357.278,6.99,8.984.357-.278Zm-.8.623-.356.277,6.99,8.984.356-.278Zm-.912.71-.357.277,6.99,8.983.357-.278Zm-1.037.806-.357.277,6.99,8.984.356-.277Zm-1.154.9-.356.278,6.99,8.984.356-.278Zm-1.244.968-.356.277,6.989,8.983.356-.278Zm-1.459,1.135-.356.277,6.99,8.984.357-.278Zm-1.643,1.278-.356.278,6.99,8.983.356-.277Zm-1.793,1.4-.356.277,6.989,8.984.356-.278Z" transform="translate(-461.936 -662.493)"/><path class="ba" d="M470.389,692.635l-.356.278-6.99-8.984.357-.277Zm-6.445-9.407-.356.277,6.99,8.984.356-.278Zm.664-.517-.356.278,6.99,8.983.356-.277Zm.747-.582-.356.278,6.99,8.983.356-.278Zm.8-.623-.357.278,6.99,8.984.356-.278Zm.912-.71-.356.278,6.989,8.984.356-.278Zm1.037-.806-.357.278,6.99,8.984.356-.278Zm1.154-.9-.357.278,6.99,8.984.356-.278Zm1.243-.967-.356.277,6.99,8.984.357-.278Zm1.459-1.135-.356.278,6.99,8.983.356-.277Zm1.643-1.278-.357.277,6.99,8.984.356-.278Zm1.793-1.4-.357.278,6.989,8.983.357-.277ZM489.426,663.4l-.356.278,6.99,8.984.357-.278Zm-.544.424-.357.277,6.99,8.984.357-.277Zm-.664.517-.357.277,6.989,8.984.357-.277Zm-.748.581-.356.278,6.99,8.984.356-.278Zm-.8.623-.357.278,6.99,8.984.356-.278Zm-.913.71-.356.278,6.99,8.984.356-.278Zm-1.037.807-.356.277,6.989,8.984.357-.278Zm-1.153.9-.357.278,6.99,8.984.356-.278Zm-1.244.968-.357.278,6.99,8.984.356-.278Zm-1.459,1.135-.356.277,6.989,8.984.356-.278Zm-1.643,1.278-.357.278,6.99,8.983.356-.277Zm-1.793,1.4-.356.277L484.062,682l.356-.278Z" transform="translate(-462.06 -662.397)"/></g></g><ellipse class="bb" cx="16.958" cy="8.378" rx="16.958" ry="8.378" transform="matrix(0.789, -0.614, 0.614, 0.789, 0, 20.828)"/><ellipse class="bc" cx="16.428" cy="8.068" rx="16.428" ry="8.068" transform="translate(0.54 20.657) rotate(-37.885)"/><path class="bd" d="M487.083,659.694c-2.842-3.652-11.137-1.95-18.529,3.8s-11.081,13.374-8.24,17.026l2.673,3.657c2.841,3.652,11.272,1.9,18.664-3.849s11.184-13.409,8.343-17.06l-2.845-3.479C487.127,659.758,487.107,659.725,487.083,659.694Z" transform="translate(-455.17 -653.082)"/><ellipse class="j" cx="12.361" cy="5.934" rx="12.361" ry="5.934" transform="translate(5.066 19.852) rotate(-37.885)"/><path class="be" d="M481.152,678c-5.379,4.185-11.362,5.526-13.336,2.989s.8-8.007,6.176-12.192,11.361-5.526,13.335-2.989S486.531,673.813,481.152,678Z" transform="translate(-459.169 -656.534)"/><path class="bf" d="M474.29,669.179c5.181-4.031,11.055-5.25,13.234-3.08a2.757,2.757,0,0,0-.2-.293c-1.974-2.538-7.956-1.2-13.335,2.989s-8.15,9.655-6.176,12.192a2.737,2.737,0,0,0,.236.262C466.484,678.6,469.109,673.21,474.29,669.179Z" transform="translate(-459.169 -656.534)"/></g><path class="bg" d="M481.152,678c-5.379,4.185-11.362,5.526-13.336,2.989s.8-8.007,6.176-12.192,11.361-5.526,13.335-2.989S486.531,673.813,481.152,678Z" transform="translate(-459.169 -656.534)"/></g></g><g transform="translate(8185.01 -1250.489)"><g transform="translate(0 0)"><path class="bh" d="M449.643,572.83c-1.15-9.7-11.036-16.5-22.08-15.188s-19.066,10.234-17.916,19.932l.507,4.27c1.15,9.7,10.952,15.787,22,14.477s19.15-9.523,18-19.221l-.484-4.024C449.657,572.993,449.653,572.912,449.643,572.83Z" transform="translate(-407.565 -555.27)"/><g transform="translate(2.026 17.083)"><g class="bi"><path class="bj" d="M413.761,612.241l-.533.063-2.83-23.856.533-.063Zm-2.016-23.953-.533.063,2.83,23.856.533-.063Zm.992-.117-.533.063,2.829,23.857.533-.063Zm1.117-.133-.533.063,2.83,23.856.533-.063Zm1.2-.142-.533.063,2.83,23.856.533-.063Zm1.363-.162-.533.063,2.83,23.856.533-.063Zm1.549-.183-.533.063,2.83,23.857.533-.063Zm1.724-.2-.533.063,2.83,23.857.533-.063Zm1.858-.22-.533.063,2.83,23.857.533-.063Zm2.18-.259-.533.063,2.83,23.856.532-.063Zm2.454-.291-.533.063,2.83,23.856.533-.063Zm2.679-.318-.533.063,2.83,23.857.533-.063Zm20.961-2.486-.533.063,2.83,23.856.533-.063Zm-.813.1-.533.063,2.83,23.856.533-.063Zm-.992.117-.533.063,2.83,23.857.533-.063Zm-1.117.133-.533.063,2.83,23.856.533-.063Zm-1.2.142-.533.063L448,608.18l.533-.063Zm-1.363.162-.533.063,2.83,23.856.533-.063Zm-1.549.183-.533.063,2.83,23.857.533-.063Zm-1.724.2-.533.063,2.83,23.857.533-.063Zm-1.858.22-.533.063,2.83,23.857.533-.063Zm-2.18.259-.533.063,2.83,23.856.533-.063Zm-2.454.291-.533.063,2.829,23.857.533-.063Zm-2.679.318-.533.063,2.83,23.857.533-.063Z" transform="translate(-409.884 -581.294)"/><path class="bk" d="M414.029,612.209l-.533.063-2.83-23.857.533-.063Zm-2.016-23.953-.533.063,2.83,23.856.533-.063Zm.991-.117-.533.063,2.83,23.856.533-.063Zm1.117-.133-.533.063,2.83,23.857.533-.063Zm1.2-.142-.533.063,2.83,23.857.533-.063Zm1.364-.162-.533.063,2.83,23.857.532-.063Zm1.548-.184-.533.063,2.83,23.856.533-.063Zm1.724-.2-.533.063,2.83,23.856.532-.063Zm1.858-.22-.533.063,2.83,23.856.533-.063Zm2.18-.259-.533.063,2.83,23.857.533-.063Zm2.455-.291-.533.063,2.83,23.856.533-.063Zm2.679-.318-.533.063,2.83,23.857.533-.063Zm20.962-2.487-.533.063,2.83,23.857.533-.063Zm-.814.1-.533.063,2.83,23.857.533-.063Zm-.991.118-.533.063,2.83,23.857.533-.063Zm-1.117.132-.533.063,2.829,23.857.533-.063Zm-1.2.142-.533.063,2.829,23.857.533-.063Zm-1.364.162-.533.063,2.83,23.857.533-.063Zm-1.549.184-.533.063,2.83,23.857.533-.063Zm-1.724.2-.533.063,2.83,23.857.533-.063Zm-1.858.22-.533.063,2.83,23.857.533-.063Zm-2.179.258-.533.063,2.83,23.857.533-.063Zm-2.455.291-.533.063,2.83,23.857.533-.063Zm-2.679.318-.533.063,2.829,23.856.533-.063Z" transform="translate(-409.975 -581.283)"/></g></g><ellipse class="bl" cx="20.138" cy="17.683" rx="20.138" ry="17.683" transform="matrix(0.993, -0.118, 0.118, 0.993, 0, 4.744)"/><ellipse class="bm" cx="19.508" cy="17.03" rx="19.508" ry="17.03" transform="translate(0.675 5.083) rotate(-6.765)"/><g transform="translate(0.675 0.488)"><g class="bn" transform="translate(0 0)"><g transform="translate(-0.08 -0.293)"><g class="bo" transform="translate(0.043 14.852)"><path class="bp" d="M447.938,590.775l-40.422-9.195,1.36-4.65,40.422,9.2Z" transform="translate(-407.516 -576.93)"/></g><g class="bq" transform="translate(0 21.6)"><path class="bp" d="M447.872,598.145l-40.422-9.195.129-1.795L448,596.35Z" transform="translate(-407.451 -587.155)"/></g><g class="bq" transform="translate(3.046)"><path class="bp" d="M452.488,564.244l-40.422-9.195,1.443-.624,40.422,9.2Z" transform="translate(-412.066 -554.425)"/></g></g></g></g><g class="cf" transform="matrix(1, 0, 0, 1, -77.61, -3.79)"><path class="br" d="M449.643,572.83c-1.15-9.7-11.036-16.5-22.08-15.188s-19.066,10.234-17.916,19.932l.507,4.27c1.15,9.7,10.952,15.787,22,14.477s19.15-9.523,18-19.221l-.484-4.024C449.657,572.993,449.653,572.912,449.643,572.83Z" transform="translate(-329.95 -551.48)"/></g><ellipse class="j" cx="14.678" cy="12.524" rx="14.678" ry="12.524" transform="translate(6.004 9.008) rotate(-6.765)"/><path class="bs" d="M433.83,589.537c-8.037.954-15.226-3.752-16.026-10.491s5.09-13,13.127-13.949,15.226,3.753,16.026,10.491S441.868,588.584,433.83,589.537Z" transform="translate(-410.351 -557.819)"/><path class="bt" d="M431.052,566.116c7.741-.919,14.747,3.873,15.963,10.214-.012-.246-.03-.494-.059-.742-.8-6.737-7.988-11.444-16.026-10.491s-13.926,7.211-13.127,13.949c.03.248.071.492.117.734C417.62,573.332,423.311,567.034,431.052,566.116Z" transform="translate(-410.351 -557.819)"/></g><path class="bu" d="M433.83,589.537c-8.037.954-15.226-3.752-16.026-10.491s5.09-13,13.127-13.949,15.226,3.753,16.026,10.491S441.868,588.584,433.83,589.537Z" transform="translate(-410.351 -557.819)"/></g><g transform="translate(8258.226 -1227.024)"><g transform="translate(0 0)"><path class="bv" d="M543.028,512.567c1.2-4.129-3.382-9.095-10.24-11.092s-13.393-.269-14.6,3.86l-1.276,4.012c-1.2,4.129,3.471,9.165,10.329,11.162s13.458.324,14.661-3.805l1.088-4.032C543,512.636,543.018,512.6,543.028,512.567Z" transform="translate(-516.727 -500.645)"/><g transform="translate(0 4.487)"><g class="bw"><path class="bx" d="M514.641,519.332l-.331-.1,2.958-10.157.331.1Zm3.463-10.01-.331-.1-2.958,10.157.331.1Zm.616.18-.331-.1-2.958,10.157.331.1Zm.693.2-.331-.1-2.958,10.157.331.1Zm.742.216-.331-.1-2.958,10.157.331.1Zm.847.246-.331-.1-2.958,10.157.331.1Zm.962.281-.331-.1-2.958,10.157.331.1Zm1.07.311-.331-.1-2.958,10.157.331.1Zm1.154.336-.331-.1L520.9,521.154l.331.1Zm1.354.394-.331-.1-2.958,10.157.331.1Zm1.524.444-.331-.1-2.958,10.157.331.1Zm1.664.484-.331-.1-2.959,10.157.331.1Zm13.016,3.791-.331-.1-2.958,10.157.331.1Zm-.5-.147-.331-.1-2.958,10.157.331.1Zm-.616-.179-.331-.1-2.958,10.157.331.1Zm-.694-.2-.331-.1-2.958,10.157.331.1Zm-.742-.216-.331-.1L535.9,525.523l.331.1Zm-.847-.247-.331-.1-2.958,10.157.331.1Zm-.962-.28-.331-.1L534.092,525l.331.1Zm-1.07-.312-.331-.1-2.958,10.157.331.1Zm-1.154-.336-.331-.1-2.958,10.157.331.1Zm-1.353-.394-.331-.1-2.959,10.157.331.1Zm-1.525-.444-.331-.1L528.99,523.51l.331.1Zm-1.664-.484-.331-.1-2.958,10.157.331.1Z" transform="translate(-515.905 -508)"/><path class="by" d="M514.807,519.38l-.331-.1,2.958-10.157.331.1Zm3.463-10.009-.331-.1-2.958,10.157.331.1Zm.616.179-.331-.1L515.6,519.61l.331.1Zm.693.2-.331-.1-2.958,10.157.331.1Zm.743.216-.331-.1-2.958,10.157.331.1Zm.847.247-.331-.1-2.958,10.157.331.1Zm.962.28-.331-.1-2.958,10.157.331.1Zm1.07.311-.331-.1-2.958,10.157.331.1Zm1.154.337-.331-.1L521.066,521.2l.331.1Zm1.353.394-.33-.1L522.419,521.6l.331.1Zm1.525.443-.331-.1-2.958,10.157.331.1Zm1.664.485-.331-.1-2.958,10.157.331.1Zm13.016,3.791-.331-.1-2.958,10.157.331.1Zm-.5-.147-.331-.1-2.958,10.157.331.1Zm-.616-.179-.331-.1L537.5,525.99l.331.1Zm-.694-.2-.331-.1-2.958,10.157.331.1Zm-.742-.216-.331-.1-2.958,10.157.331.1Zm-.847-.246-.331-.1-2.958,10.157.331.1Zm-.962-.28-.331-.1-2.958,10.157.331.1Zm-1.07-.312-.331-.1-2.958,10.157.331.1Zm-1.154-.336-.331-.1L532.033,524.4l.331.1Zm-1.354-.395-.331-.1L530.68,524l.331.1Zm-1.524-.443-.331-.1-2.958,10.157.331.1Zm-1.664-.484-.331-.1-2.958,10.157.331.1Z" transform="translate(-515.962 -508.016)"/></g></g><path class="bz" d="M543.684,512.567c-1.2,4.129-7.737,5.857-14.595,3.86s-11.443-6.964-10.241-11.092,7.737-5.857,14.6-3.86S544.887,508.439,543.684,512.567Z" transform="translate(-517.383 -500.645)"/><path class="ca" d="M543.545,512.456c-1.158,3.977-7.482,5.631-14.126,3.7s-11.09-6.727-9.933-10.7,7.483-5.631,14.126-3.7S544.7,508.48,543.545,512.456Z" transform="translate(-517.603 -500.746)"/><path class="cb" d="M543.028,512.567c1.2-4.129-3.382-9.095-10.24-11.092s-13.393-.269-14.6,3.86l-1.276,4.012c-1.2,4.129,3.471,9.165,10.329,11.162s13.458.324,14.661-3.805l1.088-4.032C543,512.636,543.018,512.6,543.028,512.567Z" transform="translate(-516.727 -500.645)"/><path class="j" d="M531.525,515.34c-5.375-1.565-8.359-5.012-7.509-7.931s5.6-4.112,10.593-2.659,8.36,5.011,7.509,7.931S536.9,516.905,531.525,515.34Z" transform="translate(-519.157 -501.83)"/><ellipse class="cc" cx="5.419" cy="9.427" rx="5.419" ry="9.427" transform="translate(3.371 10.689) rotate(-73.763)"/><path class="cd" d="M534.533,505.179c4.807,1.4,8.062,4.909,7.552,7.714a2.941,2.941,0,0,0,.11-.309c.835-2.868-2.545-6.385-7.536-7.838s-9.731-.3-10.566,2.567a3.2,3.2,0,0,0-.073.319C525.1,504.991,529.726,503.779,534.533,505.179Z" transform="translate(-519.207 -501.825)"/><ellipse class="ce" cx="5.419" cy="9.427" rx="5.419" ry="9.427" transform="translate(3.371 10.689) rotate(-73.763)"/></g></g></g></svg>