<svg xmlns="http://www.w3.org/2000/svg" xmlns:xlink="http://www.w3.org/1999/xlink" width="16" height="16" viewBox="0 0 16 16"><defs><style>.a{fill:none;}.b{fill:#fbbc03;}.c{fill:#fbaf03;}.d{clip-path:url(#a);}.e{fill:#c18320;}</style><clipPath id="a"><rect class="a" width="8.429" height="4.817"/></clipPath></defs><path class="b" d="M0,8a8,8,0,1,1,8,8A8,8,0,0,1,0,8"/><path class="c" d="M48.042,54.921A6.879,6.879,0,1,1,54.921,61.8a6.879,6.879,0,0,1-6.879-6.879" transform="translate(-46.921 -46.921)"/><g transform="translate(3.785 5.592)"><g class="d" transform="translate(0 0)"><path class="e" d="M1.891.023h.035A.675.675,0,0,1,2.4.239a.654.654,0,0,1,.191.475V4.449a.654.654,0,0,1-.191.475.674.674,0,0,1-.475.216H0V.023ZM.864,4.119a.161.161,0,0,0,.05.119.166.166,0,0,0,.122.049h.372a.268.268,0,0,0,.121-.028A.328.328,0,0,0,1.7,4.091a.319.319,0,0,0,.028-.133V1.205A.32.32,0,0,0,1.7,1.072.332.332,0,0,0,1.529.9.275.275,0,0,0,1.408.876H.555a.3.3,0,0,1,.211.1.308.308,0,0,1,.1.224Z" transform="translate(-0.269 -0.17)"/><path class="e" d="M11.3.853h.014a.366.366,0,0,1,.234.1.351.351,0,0,1,.092.238v1.2a.169.169,0,0,0,.184.175h.935a.165.165,0,0,1,.12.049.18.18,0,0,1,.057.133v.5a.173.173,0,0,1-.057.126.165.165,0,0,1-.12.049h-.928a.208.208,0,0,0-.142.049.2.2,0,0,0-.05.14v.482a.2.2,0,0,0,.05.14.209.209,0,0,0,.142.049h1.36a.185.185,0,0,1,.135.056.148.148,0,0,1,.05.119v.5a.146.146,0,0,1-.05.119.184.184,0,0,1-.135.056H10.953a.142.142,0,0,1-.12-.056.139.139,0,0,1-.057-.119V.175a.139.139,0,0,1,.057-.119A.142.142,0,0,1,10.953,0h2.238a.185.185,0,0,1,.135.056.147.147,0,0,1,.05.119v.5a.166.166,0,0,1-.042.112.208.208,0,0,1-.127.063Z" transform="translate(-7.864 -0.154)"/><path class="e" d="M24.191.671A.184.184,0,0,1,24.149.8a.193.193,0,0,1-.12.056H22.144a.332.332,0,0,1,.227.112.286.286,0,0,1,.092.223V2.559h1.126a.182.182,0,0,1,.12.049.188.188,0,0,1,.05.127v.5a.148.148,0,0,1-.05.12.17.17,0,0,1-.12.057H22.463V4.95a.166.166,0,0,1-.057.119.162.162,0,0,1-.127.056h-.5a.169.169,0,0,1-.12-.056A.166.166,0,0,1,21.6,4.95V0h2.415a.18.18,0,0,1,.177.175Z" transform="translate(-15.493 -0.154)"/></g></g></svg>