<svg xmlns="http://www.w3.org/2000/svg" width="16" height="7" viewBox="0 0 16 7"><defs><style>.a{fill:#fff;}</style></defs><path class="a" d="M12.4,141.333a3.6,3.6,0,0,0-2.517,1L8,143.96l0,0-1.01.869.007.007-1.8,1.556a2.28,2.28,0,0,1-1.6.641,2.2,2.2,0,1,1,0-4.4,2.3,2.3,0,0,1,1.627.671l.757.654,1.007-.869-.843-.729A3.63,3.63,0,0,0,3.6,141.336a3.5,3.5,0,1,0,0,7,3.618,3.618,0,0,0,2.517-1L8,145.706l0,0,1.007-.873,0,0,1.8-1.553a2.269,2.269,0,0,1,1.6-.645,2.2,2.2,0,1,1,0,4.4,2.315,2.315,0,0,1-1.627-.667l-.757-.654-1.007.873.843.729a3.624,3.624,0,0,0,2.543,1.022,3.5,3.5,0,1,0,0-7Z" transform="translate(0 -141.333)"/></svg>