<svg xmlns="http://www.w3.org/2000/svg" width="160" height="50" viewBox="0 0 160 50"><defs><style>.a{fill:#ffa143;}.b{fill:#ff7555;}.c{fill:#ff542c;}.d{fill:#ff972f;}.e{fill:#fff;}</style></defs><g transform="translate(-200.033 -113)"><g transform="translate(200.033 113)"><path class="a" d="M41.247,110.333l8.5-.2.913,10.469Z" transform="translate(-27.241 -72.737)"/><path class="b" d="M66.113,98.528l8.6-6.022L67.026,109Z" transform="translate(-43.661 -61.132)"/><path class="c" d="M38.255,94.09l18.12-1.585-8.6,6.022Z" transform="translate(-25.28 -61.066)"/><path class="d" d="M38.255,97.145l9.517,4.437-8.5.2Z" transform="translate(-25.265 -64.124)"/><path class="c" d="M112.98,120.205a.427.427,0,0,1-.426-.464l.913-10.469a.424.424,0,0,1,.436-.39l8.5.2a.427.427,0,0,1,.305.715l-9.408,10.269a.427.427,0,0,1-.315.138m1.3-10.46-.769,8.817,7.923-8.649Z" transform="translate(-74.337 -71.913)"/><path class="c" d="M97.851,108.5l-7.69-16.491.632-.531L99.4,97.5l.18.387-.913,10.469ZM91.608,93.095l6.343,13.6.753-8.635Z" transform="translate(-59.545 -60.457)"/><path class="c" d="M99.605,98.095l-.425-.037-8.6-6.022.282-.775,18.12,1.585.143.812ZM92.373,92.25l7.1,4.966,7.849-3.659Z" transform="translate(-59.858 -60.247)"/><path class="c" d="M124.146,101.386h-.01l-8.5-.2a.427.427,0,0,1-.17-.814l9.517-4.437a.427.427,0,0,1,.6.479l-1.022,4.637a.427.427,0,0,1-.417.335m-6.661-1.011,6.32.149.76-3.45Z" transform="translate(-76.102 -63.302)"/><path class="a" d="M0,26.56,16.293,25.29,17.449,6.25Z" transform="translate(0 -4.115)"/><path class="b" d="M47.69,25.291l14.9,10.428L48.846,6.251Z" transform="translate(-31.507 -4.115)"/><path class="c" d="M38.255,70.824l18.12,1.585-14.9-10.428Z" transform="translate(-25.28 -40.928)"/><path class="d" d="M13.069,70.824l3.223-8.843L0,63.251Z" transform="translate(0 -40.924)"/><path class="c" d="M148.109,26.449,131.816,25.18l-.394-.4L130.267,5.74l.75-.3,17.449,20.309Zm-15.856-2.092,14.891,1.16L131.2,6.955Z" transform="translate(-86.097 -3.579)"/><path class="c" d="M90.793,35.72l-.632-.53L103.9,5.722l.813.154,1.156,19.04-.181.375ZM103.965,7.608l-12.356,26.5L105,24.73Z" transform="translate(-59.569 -3.767)"/><path class="c" d="M90.471,72.014a.427.427,0,0,1-.245-.777l14.9-10.428a.427.427,0,0,1,.646.2l3.223,8.843a.427.427,0,0,1-.364.572l-18.12,1.586h-.037m14.686-10.186-13.135,9.2L108,69.625Z" transform="translate(-59.508 -40.106)"/><path class="c" d="M137.3,70.43a.427.427,0,0,1-.4-.281l-3.223-8.843a.427.427,0,0,1,.061-.4.435.435,0,0,1,.373-.167L150.4,62a.427.427,0,0,1,.181.795l-13.069,7.574a.427.427,0,0,1-.214.058M134.7,61.637l2.822,7.741,11.44-6.63Z" transform="translate(-88.323 -40.102)"/><path class="e" d="M129.93,2.958a1.708,1.708,0,1,1-1.708-1.708,1.708,1.708,0,0,1,1.708,1.708" transform="translate(-83.528 -0.823)"/><path class="c" d="M127.4,4.271a2.135,2.135,0,1,1,2.135-2.135A2.138,2.138,0,0,1,127.4,4.271m0-3.416a1.281,1.281,0,1,0,1.281,1.281A1.283,1.283,0,0,0,127.4.854" transform="translate(-82.707)"/><path class="e" d="M181.005,62.4A1.708,1.708,0,1,1,179.3,60.7a1.709,1.709,0,0,1,1.708,1.708" transform="translate(-117.253 -40.062)"/><path class="c" d="M178.472,63.717a2.135,2.135,0,1,1,2.135-2.135,2.138,2.138,0,0,1-2.135,2.135m0-3.416a1.281,1.281,0,1,0,1.281,1.281,1.283,1.283,0,0,0-1.281-1.281" transform="translate(-116.428 -39.239)"/><path class="e" d="M133.314,58.69a1.708,1.708,0,1,1-1.708-1.708,1.708,1.708,0,0,1,1.708,1.708" transform="translate(-85.763 -37.61)"/><path class="c" d="M130.783,60a2.135,2.135,0,1,1,2.135-2.135A2.138,2.138,0,0,1,130.783,60m0-3.416a1.281,1.281,0,1,0,1.281,1.281,1.283,1.283,0,0,0-1.281-1.281" transform="translate(-84.941 -36.787)"/><path class="e" d="M114.89,107.426a1.708,1.708,0,1,1-1.708-1.708,1.708,1.708,0,0,1,1.708,1.708" transform="translate(-73.599 -69.778)"/><path class="c" d="M112.359,108.739a2.135,2.135,0,1,1,2.135-2.135,2.138,2.138,0,0,1-2.135,2.135m0-3.416a1.281,1.281,0,1,0,1.281,1.281,1.283,1.283,0,0,0-1.281-1.281" transform="translate(-72.776 -68.956)"/><path class="e" d="M142.749,93.853a1.708,1.708,0,1,1-1.708-1.708,1.708,1.708,0,0,1,1.708,1.708" transform="translate(-91.992 -60.819)"/><path class="c" d="M140.218,95.165a2.135,2.135,0,1,1,2.135-2.135,2.138,2.138,0,0,1-2.135,2.135m0-3.416A1.281,1.281,0,1,0,141.5,93.03a1.283,1.283,0,0,0-1.281-1.281" transform="translate(-91.17 -59.997)"/><path class="e" d="M112.218,137.484a1.708,1.708,0,1,1-1.708-1.708,1.708,1.708,0,0,1,1.708,1.708" transform="translate(-71.835 -89.62)"/><path class="c" d="M109.687,138.8a2.135,2.135,0,1,1,2.135-2.135,2.138,2.138,0,0,1-2.135,2.135m0-3.416a1.281,1.281,0,1,0,1.281,1.281,1.283,1.283,0,0,0-1.281-1.281" transform="translate(-71.012 -88.797)"/></g><g transform="translate(274.901 120.913)"><path class="d" d="M240.767,33.9h8.227a6.74,6.74,0,0,1,5.679,2.453,10.188,10.188,0,0,1,1.9,6.42,11.469,11.469,0,0,1-2.022,7.074,6.729,6.729,0,0,1-5.71,2.687h-8.075Zm3.816,15.414h3.789a3.542,3.542,0,0,0,3.118-1.673,8.187,8.187,0,0,0,1.116-4.589,7.866,7.866,0,0,0-1.027-4.475,3.561,3.561,0,0,0-3.131-1.47h-3.865Z" transform="translate(-240.767 -33.651)"/><path class="d" d="M295.4,54.738a5.852,5.852,0,0,1-2.269,3.276,6.505,6.505,0,0,1-3.8,1.134,6.872,6.872,0,0,1-5.21-1.882,7.239,7.239,0,0,1-1.8-5.216,8.194,8.194,0,0,1,1.692-5.394,6.176,6.176,0,0,1,5.051-2.047,6.1,6.1,0,0,1,4.754,1.914q1.736,1.914,1.737,5.692v.646h-9.6a3.807,3.807,0,0,0,.989,2.529,3.209,3.209,0,0,0,2.345.843,2.794,2.794,0,0,0,1.534-.412,1.868,1.868,0,0,0,.837-1.084ZM291.81,50.5a3.433,3.433,0,0,0-.862-2.117,2.538,2.538,0,0,0-1.94-.8q-2.586,0-2.953,2.916Z" transform="translate(-265 -39.895)"/><path class="d" d="M321.321,38.366h2.358v2.6h-2.358V52.183h-3.638V40.965h-1.94v-2.6h1.94V37.251a3.867,3.867,0,0,1,1.052-2.991,4.9,4.9,0,0,1,3.372-.964q.62,0,1.5.063v2.966q-.393-.039-.824-.038a3.654,3.654,0,0,0-.811.07.758.758,0,0,0-.431.24.906.906,0,0,0-.178.469,6.256,6.256,0,0,0-.038.767Z" transform="translate(-284.497 -33.296)"/><path class="d" d="M341.882,38.366h2.358v2.6h-2.358V52.183h-3.638V40.965H336.3v-2.6h1.94V37.251A3.866,3.866,0,0,1,339.3,34.26a4.9,4.9,0,0,1,3.372-.964q.621,0,1.5.063v2.966q-.393-.039-.824-.038a3.653,3.653,0,0,0-.811.07.759.759,0,0,0-.431.24.913.913,0,0,0-.178.469,6.255,6.255,0,0,0-.038.767Z" transform="translate(-296.49 -33.296)"/><path class="d" d="M370.373,54.738a5.852,5.852,0,0,1-2.269,3.276,6.505,6.505,0,0,1-3.8,1.134,6.872,6.872,0,0,1-5.21-1.882,7.239,7.239,0,0,1-1.8-5.216,8.193,8.193,0,0,1,1.692-5.394,6.176,6.176,0,0,1,5.051-2.047,6.1,6.1,0,0,1,4.754,1.914q1.736,1.914,1.737,5.692v.646h-9.6a3.808,3.808,0,0,0,.989,2.529,3.209,3.209,0,0,0,2.345.843,2.794,2.794,0,0,0,1.534-.412,1.867,1.867,0,0,0,.837-1.084ZM366.786,50.5a3.433,3.433,0,0,0-.862-2.117,2.538,2.538,0,0,0-1.94-.8q-2.586,0-2.953,2.916Z" transform="translate(-308.73 -39.895)"/><path class="d" d="M405.841,53.75a6.127,6.127,0,0,1-1.94,3.91,6.244,6.244,0,0,1-4.373,1.489,6.016,6.016,0,0,1-4.735-1.838,7.3,7.3,0,0,1-1.642-5.045q0-3.8,1.73-5.729a6.23,6.23,0,0,1,4.887-1.927,6.548,6.548,0,0,1,4.17,1.344,5.317,5.317,0,0,1,1.927,3.955h-3.689a2.874,2.874,0,0,0-.811-1.7,2.3,2.3,0,0,0-1.6-.545,2.416,2.416,0,0,0-2.136,1.1,5.114,5.114,0,0,0-.742,2.9,5.962,5.962,0,0,0,.754,3.543,2.481,2.481,0,0,0,2.047.944,2.245,2.245,0,0,0,1.711-.716,2.713,2.713,0,0,0,.748-1.692Z" transform="translate(-329.645 -39.895)"/><path class="d" d="M431.911,40.247h2.256v2.6h-2.256V50.59c0,.363.1.6.3.71a1.962,1.962,0,0,0,.919.165,8.87,8.87,0,0,0,1.039-.051v2.7a12.865,12.865,0,0,1-1.965.127,5.3,5.3,0,0,1-3.042-.653,2.74,2.74,0,0,1-.886-2.351V42.845H426.4v-2.6h1.877V36.52h3.638Z" transform="translate(-349.036 -35.176)"/><path class="a" d="M253.257,91.993h1.612a1.322,1.322,0,0,1,1.114.481,2,2,0,0,1,.373,1.258,2.244,2.244,0,0,1-.4,1.387,1.317,1.317,0,0,1-1.119.527h-1.583Zm.748,3.021h.743a.7.7,0,0,0,.611-.328,1.6,1.6,0,0,0,.218-.9,1.544,1.544,0,0,0-.2-.877.7.7,0,0,0-.614-.289h-.758Z" transform="translate(-248.052 -67.531)"/><path class="a" d="M264.21,96.077a1.146,1.146,0,0,1-.445.642,1.275,1.275,0,0,1-.746.223A1.347,1.347,0,0,1,262,96.573a1.419,1.419,0,0,1-.353-1.023,1.608,1.608,0,0,1,.332-1.057,1.211,1.211,0,0,1,.99-.4,1.2,1.2,0,0,1,.931.375,1.611,1.611,0,0,1,.341,1.116v.127h-1.881a.748.748,0,0,0,.194.5.628.628,0,0,0,.46.165.548.548,0,0,0,.3-.08.369.369,0,0,0,.164-.213Zm-.7-.83a.672.672,0,0,0-.169-.415.5.5,0,0,0-.38-.157q-.508,0-.579.572Z" transform="translate(-252.945 -68.755)"/><path class="a" d="M271.162,95.883a1.2,1.2,0,0,1-.38.766,1.222,1.222,0,0,1-.857.292,1.179,1.179,0,0,1-.928-.36,1.431,1.431,0,0,1-.322-.989,1.636,1.636,0,0,1,.339-1.124,1.221,1.221,0,0,1,.958-.377,1.283,1.283,0,0,1,.817.263,1.043,1.043,0,0,1,.378.775h-.723a.561.561,0,0,0-.159-.333.451.451,0,0,0-.313-.107.474.474,0,0,0-.419.216,1,1,0,0,0-.145.569,1.168,1.168,0,0,0,.148.695.486.486,0,0,0,.4.185.44.44,0,0,0,.336-.14.536.536,0,0,0,.147-.332Z" transform="translate(-257.044 -68.755)"/><path class="a" d="M278.024,96.077a1.146,1.146,0,0,1-.445.642,1.275,1.275,0,0,1-.746.223,1.347,1.347,0,0,1-1.021-.369,1.419,1.419,0,0,1-.353-1.023,1.608,1.608,0,0,1,.332-1.057,1.211,1.211,0,0,1,.99-.4,1.2,1.2,0,0,1,.931.375,1.611,1.611,0,0,1,.341,1.116v.127h-1.881a.746.746,0,0,0,.194.5.627.627,0,0,0,.459.165.548.548,0,0,0,.3-.08.368.368,0,0,0,.164-.213Zm-.7-.83a.672.672,0,0,0-.169-.415.5.5,0,0,0-.38-.157q-.508,0-.579.572Z" transform="translate(-261.002 -68.755)"/><path class="a" d="M285.326,96.87h-.713V95.188a.564.564,0,0,0-.107-.367.433.433,0,0,0-.355-.131.523.523,0,0,0-.408.168.659.659,0,0,0-.152.459V96.87h-.713V94.162h.683v.4h.01a.856.856,0,0,1,.808-.468.983.983,0,0,1,.681.238.847.847,0,0,1,.266.667Z" transform="translate(-265.328 -68.755)"/><path class="a" d="M290.725,93.237h.443v.509h-.443v1.518a.145.145,0,0,0,.059.139.382.382,0,0,0,.18.032,1.729,1.729,0,0,0,.2-.01v.529a2.5,2.5,0,0,1-.385.025,1.044,1.044,0,0,1-.6-.128.538.538,0,0,1-.174-.461V93.746h-.368v-.509h.368v-.731h.713Z" transform="translate(-269.275 -67.83)"/><path class="a" d="M294.432,94.162h.683v.469h.01a1.069,1.069,0,0,1,.3-.4.7.7,0,0,1,.442-.137.922.922,0,0,1,.137.01v.723a1.294,1.294,0,0,0-.2-.01.676.676,0,0,0-.494.16.657.657,0,0,0-.162.486V96.87h-.713Z" transform="translate(-272.067 -68.755)"/><path class="a" d="M301.118,96.341a.961.961,0,0,0,.035.292.18.18,0,0,0,.122.13v.107h-.763a1.345,1.345,0,0,1-.07-.32,1.153,1.153,0,0,1-.9.393.884.884,0,0,1-.62-.214.741.741,0,0,1-.235-.576.823.823,0,0,1,.2-.574.992.992,0,0,1,.613-.286l.666-.1a.36.36,0,0,0,.2-.075.187.187,0,0,0,.06-.143.273.273,0,0,0-.114-.238.616.616,0,0,0-.35-.08.58.58,0,0,0-.359.089.425.425,0,0,0-.14.291h-.688a1.009,1.009,0,0,1,.337-.721,1.459,1.459,0,0,1,.908-.226,1.421,1.421,0,0,1,.8.2.656.656,0,0,1,.3.581Zm-.7-.783a1.309,1.309,0,0,1-.512.147.779.779,0,0,0-.416.143.352.352,0,0,0-.1.26.291.291,0,0,0,.1.243.39.39,0,0,0,.248.082.756.756,0,0,0,.473-.153.463.463,0,0,0,.2-.381Z" transform="translate(-274.547 -68.755)"/><rect class="a" width="0.713" height="3.652" transform="translate(27.23 24.462)"/><path class="a" d="M310.2,92.565h-.713V91.9h.713Zm0,3.029h-.713V92.885h.713Z" transform="translate(-280.848 -67.479)"/><path class="a" d="M313.222,96.381h1.419v.586H312.3v-.554l1.389-1.583H312.4v-.571h2.194v.586Z" transform="translate(-282.489 -68.853)"/><path class="a" d="M320.988,96.077a1.144,1.144,0,0,1-.445.642,1.274,1.274,0,0,1-.745.223,1.348,1.348,0,0,1-1.021-.369,1.421,1.421,0,0,1-.353-1.023,1.606,1.606,0,0,1,.332-1.057,1.211,1.211,0,0,1,.99-.4,1.2,1.2,0,0,1,.931.375,1.611,1.611,0,0,1,.341,1.116v.127h-1.881a.744.744,0,0,0,.194.5.627.627,0,0,0,.459.165.548.548,0,0,0,.3-.08.366.366,0,0,0,.164-.213Zm-.7-.83a.67.67,0,0,0-.169-.415.5.5,0,0,0-.38-.157q-.507,0-.579.572Z" transform="translate(-286.06 -68.755)"/><path class="a" d="M328.084,95.646h-.7v-.34h-.01a.845.845,0,0,1-.785.413.988.988,0,0,1-.838-.4,1.715,1.715,0,0,1-.3-1.056,1.532,1.532,0,0,1,.315-1.019,1.008,1.008,0,0,1,.808-.375.866.866,0,0,1,.785.422h.01v-1.3h.713Zm-1.9-1.334a1.029,1.029,0,0,0,.156.589.491.491,0,0,0,.428.231.557.557,0,0,0,.466-.212.9.9,0,0,0,.165-.565,1.133,1.133,0,0,0-.154-.651.575.575,0,0,0-.9,0,1.021,1.021,0,0,0-.159.609" transform="translate(-290.16 -67.532)"/><path class="a" d="M337.533,95.646h-.763V91.993h2.6v.646h-1.836v.822h1.607v.646h-1.607Z" transform="translate(-296.761 -67.531)"/><path class="a" d="M344.822,92.565h-.713V91.9h.713Zm0,3.029h-.713V92.885h.713Z" transform="translate(-301.041 -67.479)"/><path class="a" d="M349.937,96.87h-.713V95.188a.564.564,0,0,0-.107-.367.433.433,0,0,0-.355-.131.523.523,0,0,0-.408.168.661.661,0,0,0-.151.459V96.87h-.713V94.162h.684v.4h.01a.856.856,0,0,1,.808-.468.982.982,0,0,1,.681.238.848.848,0,0,1,.266.667Z" transform="translate(-303.013 -68.755)"/><path class="a" d="M356.929,96.341a.961.961,0,0,0,.035.292.181.181,0,0,0,.122.13v.107h-.763a1.343,1.343,0,0,1-.07-.32,1.153,1.153,0,0,1-.9.393.885.885,0,0,1-.62-.214.741.741,0,0,1-.235-.576.821.821,0,0,1,.205-.574.99.99,0,0,1,.613-.286l.666-.1a.359.359,0,0,0,.2-.075.187.187,0,0,0,.06-.143.273.273,0,0,0-.114-.238.616.616,0,0,0-.35-.08.58.58,0,0,0-.359.089.427.427,0,0,0-.14.291h-.688a1.009,1.009,0,0,1,.337-.721,1.46,1.46,0,0,1,.908-.226,1.42,1.42,0,0,1,.8.2.656.656,0,0,1,.3.581Zm-.7-.783a1.309,1.309,0,0,1-.512.147.775.775,0,0,0-.416.143.352.352,0,0,0-.1.26.291.291,0,0,0,.1.243.39.39,0,0,0,.248.082.758.758,0,0,0,.474-.153.464.464,0,0,0,.2-.381Z" transform="translate(-307.098 -68.755)"/><path class="a" d="M364.366,96.87h-.713V95.188a.564.564,0,0,0-.107-.367.433.433,0,0,0-.355-.131.523.523,0,0,0-.408.168.661.661,0,0,0-.152.459V96.87h-.713V94.162h.683v.4h.01a.856.856,0,0,1,.808-.468.982.982,0,0,1,.681.238.848.848,0,0,1,.266.667Z" transform="translate(-311.428 -68.755)"/><path class="a" d="M371.471,95.883a1.2,1.2,0,0,1-.38.766,1.222,1.222,0,0,1-.857.292,1.179,1.179,0,0,1-.928-.36,1.429,1.429,0,0,1-.322-.989,1.636,1.636,0,0,1,.339-1.124,1.221,1.221,0,0,1,.958-.377,1.283,1.283,0,0,1,.817.263,1.042,1.042,0,0,1,.378.775h-.723a.561.561,0,0,0-.159-.333.451.451,0,0,0-.313-.107.474.474,0,0,0-.419.216,1,1,0,0,0-.145.569,1.164,1.164,0,0,0,.148.695.485.485,0,0,0,.4.185.44.44,0,0,0,.336-.14.536.536,0,0,0,.147-.332Z" transform="translate(-315.549 -68.755)"/><path class="a" d="M376.9,92.565h-.713V91.9h.713Zm0,3.029h-.713V92.885h.713Z" transform="translate(-319.749 -67.479)"/><path class="a" d="M381.554,96.341a.962.962,0,0,0,.035.292.18.18,0,0,0,.122.13v.107h-.763a1.343,1.343,0,0,1-.07-.32,1.153,1.153,0,0,1-.9.393.885.885,0,0,1-.62-.214.741.741,0,0,1-.235-.576.823.823,0,0,1,.2-.574.993.993,0,0,1,.613-.286l.666-.1a.358.358,0,0,0,.2-.075.187.187,0,0,0,.06-.143.273.273,0,0,0-.114-.238.616.616,0,0,0-.35-.08.58.58,0,0,0-.359.089.425.425,0,0,0-.14.291h-.688a1.009,1.009,0,0,1,.337-.721,1.459,1.459,0,0,1,.908-.226,1.424,1.424,0,0,1,.8.2.657.657,0,0,1,.3.581Zm-.7-.783a1.309,1.309,0,0,1-.512.147.779.779,0,0,0-.416.143.352.352,0,0,0-.1.26.291.291,0,0,0,.1.243.39.39,0,0,0,.248.082.756.756,0,0,0,.473-.153.463.463,0,0,0,.2-.381Z" transform="translate(-321.461 -68.755)"/><rect class="a" width="0.713" height="3.652" transform="translate(60.752 24.462)"/><path class="a" d="M395.947,92.639h-1.938v.768h1.782v.646h-1.782V95h2.025v.646h-2.773V91.993h2.686Z" transform="translate(-329.709 -67.531)"/><path class="a" d="M401.634,92.868h.462v.509h-.462v2.2h-.713v-2.2h-.38v-.509h.38V92.65a.758.758,0,0,1,.206-.587.961.961,0,0,1,.661-.189c.081,0,.179,0,.293.013v.581q-.078-.008-.161-.008a.713.713,0,0,0-.159.014.149.149,0,0,0-.085.047.174.174,0,0,0-.035.092,1.139,1.139,0,0,0-.008.151Z" transform="translate(-333.955 -67.462)"/><path class="a" d="M405.665,92.868h.462v.509h-.462v2.2h-.713v-2.2h-.38v-.509h.38V92.65a.758.758,0,0,1,.206-.587.961.961,0,0,1,.661-.189c.081,0,.179,0,.293.013v.581c-.052-.005-.105-.008-.162-.008a.711.711,0,0,0-.159.014.149.149,0,0,0-.085.047.178.178,0,0,0-.035.092,1.211,1.211,0,0,0-.008.151Z" transform="translate(-336.306 -67.462)"/><path class="a" d="M411.249,96.077a1.146,1.146,0,0,1-.445.642,1.275,1.275,0,0,1-.746.223,1.347,1.347,0,0,1-1.021-.369,1.419,1.419,0,0,1-.353-1.023,1.608,1.608,0,0,1,.332-1.057,1.211,1.211,0,0,1,.99-.4,1.2,1.2,0,0,1,.932.375,1.613,1.613,0,0,1,.34,1.116v.127H409.4a.744.744,0,0,0,.194.5.626.626,0,0,0,.459.165.546.546,0,0,0,.3-.08.366.366,0,0,0,.164-.213Zm-.7-.83a.672.672,0,0,0-.169-.415.5.5,0,0,0-.38-.157q-.507,0-.579.572Z" transform="translate(-338.705 -68.755)"/><path class="a" d="M418.2,95.883a1.2,1.2,0,0,1-.38.766,1.222,1.222,0,0,1-.857.292,1.179,1.179,0,0,1-.928-.36,1.431,1.431,0,0,1-.322-.989,1.634,1.634,0,0,1,.34-1.124,1.22,1.22,0,0,1,.958-.377,1.282,1.282,0,0,1,.817.263,1.044,1.044,0,0,1,.378.775h-.723a.563.563,0,0,0-.159-.333.451.451,0,0,0-.313-.107.473.473,0,0,0-.419.216,1,1,0,0,0-.145.569,1.168,1.168,0,0,0,.148.695.486.486,0,0,0,.4.185.44.44,0,0,0,.336-.14.534.534,0,0,0,.147-.332Z" transform="translate(-342.805 -68.755)"/><path class="a" d="M423.312,93.237h.443v.509h-.443v1.518c0,.071.019.118.059.139a.38.38,0,0,0,.18.032,1.736,1.736,0,0,0,.2-.01v.529a2.5,2.5,0,0,1-.385.025,1.043,1.043,0,0,1-.6-.128.538.538,0,0,1-.174-.461V93.746h-.368v-.509h.368v-.731h.713Z" transform="translate(-346.606 -67.83)"/><path class="a" d="M428.272,94.991a.411.411,0,0,0-.13-.273.513.513,0,0,0-.348-.1.578.578,0,0,0-.325.072.214.214,0,0,0-.1.181.189.189,0,0,0,.088.165,3.526,3.526,0,0,0,.68.2,1.561,1.561,0,0,1,.768.329.685.685,0,0,1,.164.468.809.809,0,0,1-.316.688,1.561,1.561,0,0,1-.946.238,1.454,1.454,0,0,1-.869-.228.948.948,0,0,1-.361-.718h.731a.37.37,0,0,0,.135.314.674.674,0,0,0,.411.1.737.737,0,0,0,.358-.07.213.213,0,0,0,.125-.188.216.216,0,0,0-.091-.185,2.392,2.392,0,0,0-.615-.178,1.547,1.547,0,0,1-.773-.325.671.671,0,0,1-.19-.481.841.841,0,0,1,.288-.658,1.249,1.249,0,0,1,.852-.256,1.349,1.349,0,0,1,.845.229.886.886,0,0,1,.325.671Z" transform="translate(-349.138 -68.755)"/><path class="c" d="M285.063,108.294a2.063,2.063,0,0,1,.1-.648,1.76,1.76,0,0,1,.284-.543,1.3,1.3,0,0,1,.487-.379,1.587,1.587,0,0,1,.678-.14,1.455,1.455,0,0,1,1.376.866,2.205,2.205,0,0,1,0,1.686,1.447,1.447,0,0,1-.524.62,1.629,1.629,0,0,1-1.707,0,1.434,1.434,0,0,1-.526-.62,2.055,2.055,0,0,1-.168-.843m.386-.531a1.945,1.945,0,0,0,0,1.061,1.548,1.548,0,0,0,.218.457,1.038,1.038,0,0,0,.388.331,1.309,1.309,0,0,0,1.112,0,1.017,1.017,0,0,0,.386-.331,1.574,1.574,0,0,0,.216-.457,1.945,1.945,0,0,0,0-1.061,1.585,1.585,0,0,0-.216-.457,1.024,1.024,0,0,0-.386-.331,1.309,1.309,0,0,0-1.112,0,1.045,1.045,0,0,0-.388.331,1.557,1.557,0,0,0-.218.457" transform="translate(-266.603 -76.042)"/><path class="c" d="M293.506,108.836h.289v.409h.009a.7.7,0,0,1,.294-.347.862.862,0,0,1,.464-.131.839.839,0,0,1,.673.232,1.034,1.034,0,0,1,.2.682v1.525h-.289v-1.479q0-.716-.6-.717a.677.677,0,0,0-.535.228.891.891,0,0,0-.209.586v1.383h-.289Z" transform="translate(-271.527 -77.314)"/><path class="c" d="M299.439,110.1a1.1,1.1,0,0,0,.2.648.665.665,0,0,0,.581.285.709.709,0,0,0,.744-.606h.289a.97.97,0,0,1-1.034.845.943.943,0,0,1-.8-.351,1.443,1.443,0,0,1-.267-.9,1.666,1.666,0,0,1,.105-.6,1.042,1.042,0,0,1,.356-.461.985.985,0,0,1,.609-.188.942.942,0,0,1,.608.2,1.065,1.065,0,0,1,.347.492,1.75,1.75,0,0,1,.087.643Zm1.534-.243a.945.945,0,0,0-.216-.595.706.706,0,0,0-1.075,0,1.131,1.131,0,0,0-.243.6Z" transform="translate(-274.819 -77.315)"/><path class="c" d="M308.014,109.562a.783.783,0,0,1,.28-.6,1.085,1.085,0,0,1,.68-.2q.872,0,.872.763v1.259a.152.152,0,0,0,.17.175.2.2,0,0,0,.092-.018v.243a.94.94,0,0,1-.188.019.3.3,0,0,1-.271-.1.56.56,0,0,1-.069-.31h-.009a1.2,1.2,0,0,1-.353.365.982.982,0,0,1-.51.113.907.907,0,0,1-.574-.172.615.615,0,0,1-.22-.517.675.675,0,0,1,.037-.232.757.757,0,0,1,.085-.175.432.432,0,0,1,.152-.129,1.687,1.687,0,0,1,.177-.087,1.215,1.215,0,0,1,.223-.058c.1-.018.175-.031.227-.039s.136-.018.253-.03l.12-.014a.617.617,0,0,0,.287-.078.282.282,0,0,0,.085-.243.418.418,0,0,0-.165-.379.826.826,0,0,0-.455-.108.707.707,0,0,0-.457.136.524.524,0,0,0-.177.416Zm1.544.349h-.009c-.025.046-.105.081-.243.105l-.248.04c-.114.017-.2.03-.262.041a2.092,2.092,0,0,0-.223.055.719.719,0,0,0-.2.085.431.431,0,0,0-.12.131.36.36,0,0,0-.053.2.418.418,0,0,0,.156.34.568.568,0,0,0,.372.128.873.873,0,0,0,.588-.2.676.676,0,0,0,.239-.54Z" transform="translate(-279.93 -77.314)"/><path class="c" d="M315.448,109.58a.635.635,0,0,0-.671-.57.715.715,0,0,0-.611.3,1.253,1.253,0,0,0,0,1.419.714.714,0,0,0,.611.3.643.643,0,0,0,.464-.193.751.751,0,0,0,.225-.482h.289a1.091,1.091,0,0,1-.316.673.932.932,0,0,1-.662.241,1.016,1.016,0,0,1-.822-.356,1.485,1.485,0,0,1,0-1.787,1.124,1.124,0,0,1,1.474-.154.884.884,0,0,1,.308.606Z" transform="translate(-283.279 -77.314)"/><path class="c" d="M319.781,107.936h.483v.243h-.483v1.6a.447.447,0,0,0,.046.23.225.225,0,0,0,.188.083,2.361,2.361,0,0,0,.248-.014v.243c-.028,0-.071,0-.129,0s-.1.005-.129.005a.564.564,0,0,1-.407-.115.575.575,0,0,1-.107-.413V108.18h-.414v-.243h.414v-.712h.289Z" transform="translate(-286.442 -76.414)"/><path class="c" d="M322.937,106.75h.289v.464h-.289Zm0,.91h.289v2.37h-.289Z" transform="translate(-288.693 -76.138)"/><path class="c" d="M324.978,109.127a1.118,1.118,0,0,1,1.645,0,1.487,1.487,0,0,1,0,1.787,1.128,1.128,0,0,1-1.645,0,1.485,1.485,0,0,1,0-1.787m1.433.184a.771.771,0,0,0-1.222,0,1.252,1.252,0,0,0,0,1.419.771.771,0,0,0,1.222,0,1.255,1.255,0,0,0,0-1.419" transform="translate(-289.709 -77.314)"/><path class="c" d="M331.083,108.836h.289v.409h.01a.693.693,0,0,1,.294-.347.862.862,0,0,1,.464-.131.84.84,0,0,1,.673.232,1.034,1.034,0,0,1,.2.682v1.525h-.289v-1.479q0-.716-.6-.717a.678.678,0,0,0-.535.228.891.891,0,0,0-.209.586v1.383h-.289Z" transform="translate(-293.444 -77.314)"/><path class="c" d="M337.78,113.452v.487a.76.76,0,0,1-.106.4.474.474,0,0,1-.3.229v-.2a.3.3,0,0,0,.163-.176.475.475,0,0,0,.048-.25h-.193v-.487Z" transform="translate(-297.114 -80.047)"/><path class="c" d="M343.141,108.836h.267v.4h.014a.815.815,0,0,1,.776-.469.777.777,0,0,1,.43.12.588.588,0,0,1,.251.345.735.735,0,0,1,.305-.345.874.874,0,0,1,.448-.12q.785,0,.785.832v1.608h-.289v-1.594a.679.679,0,0,0-.129-.453.544.544,0,0,0-.432-.15q-.643,0-.643.855v1.342h-.289V109.6q0-.588-.5-.588a.618.618,0,0,0-.531.239,1.04,1.04,0,0,0-.177.634v1.323h-.289Z" transform="translate(-300.477 -77.314)"/><path class="c" d="M352.336,109.127a1.118,1.118,0,0,1,1.644,0,1.485,1.485,0,0,1,0,1.787,1.127,1.127,0,0,1-1.644,0,1.485,1.485,0,0,1,0-1.787m1.433.184a.771.771,0,0,0-1.222,0,1.253,1.253,0,0,0,0,1.419.771.771,0,0,0,1.222,0,1.253,1.253,0,0,0,0-1.419" transform="translate(-305.665 -77.314)"/><path class="c" d="M358.452,108.886h.267v.556h.009a.891.891,0,0,1,.344-.448.906.906,0,0,1,.552-.14v.289a.806.806,0,0,0-.634.228.841.841,0,0,0-.248.622v1.264h-.289Z" transform="translate(-309.407 -77.365)"/><path class="c" d="M361.728,110.1a1.1,1.1,0,0,0,.2.648.666.666,0,0,0,.581.285.709.709,0,0,0,.745-.606h.289a.971.971,0,0,1-1.034.845.944.944,0,0,1-.8-.351,1.442,1.442,0,0,1-.267-.9,1.664,1.664,0,0,1,.106-.6,1.038,1.038,0,0,1,.356-.461.984.984,0,0,1,.608-.188.943.943,0,0,1,.609.2,1.067,1.067,0,0,1,.347.492,1.75,1.75,0,0,1,.087.643Zm1.534-.243a.946.946,0,0,0-.216-.595.706.706,0,0,0-1.075,0,1.131,1.131,0,0,0-.244.6Z" transform="translate(-311.149 -77.315)"/><path class="c" d="M370.513,110.1a1.1,1.1,0,0,0,.2.648.666.666,0,0,0,.581.285.709.709,0,0,0,.745-.606h.289a.971.971,0,0,1-1.034.845.944.944,0,0,1-.8-.351,1.443,1.443,0,0,1-.267-.9,1.665,1.665,0,0,1,.106-.6,1.038,1.038,0,0,1,.356-.461.984.984,0,0,1,.608-.188.944.944,0,0,1,.609.2,1.067,1.067,0,0,1,.347.492,1.749,1.749,0,0,1,.087.643Zm1.534-.243a.947.947,0,0,0-.216-.595.706.706,0,0,0-1.075,0,1.131,1.131,0,0,0-.244.6Z" transform="translate(-316.273 -77.315)"/><path class="c" d="M376.8,107.9h-.468v2.127h-.29V107.9h-.4v-.243h.4v-.216a.9.9,0,0,1,.124-.517.513.513,0,0,1,.45-.177,1.755,1.755,0,0,1,.244.018v.248a1.248,1.248,0,0,0-.211-.023.413.413,0,0,0-.154.025.264.264,0,0,0-.094.06.23.23,0,0,0-.048.106.714.714,0,0,0-.018.12c0,.032,0,.082,0,.149v.207h.468Z" transform="translate(-319.429 -76.138)"/><path class="c" d="M379.456,107.9h-.468v2.127H378.7V107.9h-.4v-.243h.4v-.216a.9.9,0,0,1,.124-.517.513.513,0,0,1,.45-.177,1.75,1.75,0,0,1,.243.018v.248a1.249,1.249,0,0,0-.211-.023.409.409,0,0,0-.154.025.263.263,0,0,0-.095.06.226.226,0,0,0-.048.106.678.678,0,0,0-.019.12c0,.032,0,.082,0,.149v.207h.468Z" transform="translate(-320.98 -76.138)"/><path class="c" d="M381.746,110.1a1.1,1.1,0,0,0,.2.648.665.665,0,0,0,.581.285.709.709,0,0,0,.744-.606h.29a.971.971,0,0,1-1.034.845.943.943,0,0,1-.8-.351,1.443,1.443,0,0,1-.267-.9,1.655,1.655,0,0,1,.106-.6,1.037,1.037,0,0,1,.355-.461.985.985,0,0,1,.609-.188.941.941,0,0,1,.608.2,1.065,1.065,0,0,1,.347.492,1.75,1.75,0,0,1,.087.643Zm1.534-.243a.944.944,0,0,0-.216-.595.706.706,0,0,0-1.075,0,1.131,1.131,0,0,0-.243.6Z" transform="translate(-322.824 -77.315)"/><path class="c" d="M388.969,109.58a.635.635,0,0,0-.671-.57.715.715,0,0,0-.611.3,1.253,1.253,0,0,0,0,1.419.714.714,0,0,0,.611.3.643.643,0,0,0,.464-.193.753.753,0,0,0,.225-.482h.289a1.091,1.091,0,0,1-.317.673.93.93,0,0,1-.661.241,1.017,1.017,0,0,1-.823-.356,1.487,1.487,0,0,1,0-1.787,1.125,1.125,0,0,1,1.475-.154.884.884,0,0,1,.308.606Z" transform="translate(-326.161 -77.314)"/><path class="c" d="M393.3,107.936h.482v.243H393.3v1.6a.447.447,0,0,0,.046.23.225.225,0,0,0,.188.083,2.346,2.346,0,0,0,.248-.014v.243c-.027,0-.07,0-.128,0s-.1.005-.129.005a.563.563,0,0,1-.407-.115.576.576,0,0,1-.108-.413V108.18H392.6v-.243h.414v-.712h.289Z" transform="translate(-329.324 -76.414)"/><path class="c" d="M397.68,109.53a.478.478,0,0,0-.183-.388.709.709,0,0,0-.436-.131.762.762,0,0,0-.393.1.335.335,0,0,0-.168.31q0,.276.492.4l.385.087a.938.938,0,0,1,.481.207.561.561,0,0,1,.2.451.584.584,0,0,1-.285.533,1.25,1.25,0,0,1-.666.174.847.847,0,0,1-.974-.831h.29a.581.581,0,0,0,.209.438.753.753,0,0,0,.489.154.9.9,0,0,0,.448-.113.364.364,0,0,0,.2-.338.316.316,0,0,0-.135-.28,1.2,1.2,0,0,0-.384-.152l-.372-.082a1.273,1.273,0,0,1-.494-.221.5.5,0,0,1-.168-.413.551.551,0,0,1,.266-.5,1.158,1.158,0,0,1,.625-.165.934.934,0,0,1,.611.2.742.742,0,0,1,.257.568Z" transform="translate(-331.381 -77.314)"/></g></g></svg>