<svg xmlns="http://www.w3.org/2000/svg" width="20.571" height="16" viewBox="0 0 20.571 16"><defs><style>.a{fill:#ffa143;}.b{fill:#ff7555;}.c{fill:#ff542c;}.d{fill:#ff972f;}.e{fill:#fff;}</style></defs><path class="a" d="M41.247,110.2l2.726-.064.293,3.359Z" transform="translate(-36.759 -98.177)"/><path class="b" d="M66.113,94.438l2.76-1.932L66.406,97.8Z" transform="translate(-58.918 -82.482)"/><path class="c" d="M38.255,93.014l5.814-.509-2.76,1.932Z" transform="translate(-34.098 -82.448)"/><path class="d" d="M38.255,97.145l3.054,1.424-2.726.064Z" transform="translate(-34.092 -86.581)"/><path class="c" d="M112.689,112.515a.137.137,0,0,1-.137-.149l.293-3.359a.136.136,0,0,1,.14-.125l2.726.064a.137.137,0,0,1,.1.229l-3.019,3.3a.137.137,0,0,1-.1.044m.418-3.356-.247,2.829,2.542-2.775Z" transform="translate(-100.306 -97.063)"/><path class="c" d="M92.628,96.943l-2.467-5.291.2-.17,2.76,1.932.058.124L92.889,96.9Zm-2-4.944,2.035,4.364.242-2.771Z" transform="translate(-80.35 -81.57)"/><path class="c" d="M93.474,93.453l-.136-.012-2.76-1.932.091-.249,5.814.509.046.261Zm-2.321-1.875,2.277,1.594L95.948,92Z" transform="translate(-80.735 -81.34)"/><path class="c" d="M118.086,97.657h0l-2.726-.064a.137.137,0,0,1-.055-.261l3.054-1.424a.137.137,0,0,1,.192.154l-.328,1.488a.137.137,0,0,1-.134.107m-2.137-.324,2.028.048.244-1.107Z" transform="translate(-102.686 -85.469)"/><path class="a" d="M0,12.767l5.228-.407L5.6,6.25Z" transform="translate(0 -5.565)"/><path class="b" d="M47.69,12.36l4.78,3.346L48.061,6.251Z" transform="translate(-42.505 -5.565)"/><path class="c" d="M38.255,64.819l5.814.509-4.78-3.346Z" transform="translate(-34.098 -55.249)"/><path class="d" d="M4.194,64.819l1.034-2.837L0,62.389Z" transform="translate(0 -55.247)"/><path class="c" d="M135.992,12.178l-5.228-.407-.126-.128-.371-6.109.241-.1,5.6,6.517Zm-5.088-.671,4.778.372-5.117-5.956Z" transform="translate(-116.116 -4.84)"/><path class="c" d="M90.364,15.348l-.2-.17L94.57,5.722l.261.05.371,6.109-.058.12Zm4.226-9.02-3.965,8.5,4.3-3.009Z" transform="translate(-80.359 -5.095)"/><path class="c" d="M90.181,64.352A.137.137,0,0,1,90.1,64.1l4.78-3.346a.137.137,0,0,1,.207.065l1.034,2.837a.137.137,0,0,1-.117.183l-5.814.509h-.012m4.712-3.268-4.215,2.95,5.127-.449Z" transform="translate(-80.26 -54.137)"/><path class="c" d="M134.819,63.845a.137.137,0,0,1-.129-.09l-1.034-2.837a.137.137,0,0,1,.02-.13.139.139,0,0,1,.12-.054l5.228.407a.137.137,0,0,1,.058.255l-4.194,2.43a.137.137,0,0,1-.069.019m-.833-2.821.905,2.484,3.671-2.127Z" transform="translate(-119.126 -54.136)"/><path class="e" d="M127.61,1.8a.548.548,0,1,1-.548-.548.548.548,0,0,1,.548.548" transform="translate(-112.737 -1.113)"/><path class="c" d="M125.949,1.37a.685.685,0,1,1,.685-.685.686.686,0,0,1-.685.685m0-1.1a.411.411,0,1,0,.411.411.412.412,0,0,0-.411-.411" transform="translate(-111.624)"/><path class="e" d="M178.685,61.244a.548.548,0,1,1-.548-.548.548.548,0,0,1,.548.548" transform="translate(-158.251 -54.094)"/><path class="c" d="M177.022,60.816a.685.685,0,1,1,.685-.685.686.686,0,0,1-.685.685m0-1.1a.411.411,0,1,0,.411.411.412.412,0,0,0-.411-.411" transform="translate(-157.136 -52.981)"/><path class="e" d="M130.994,57.53a.548.548,0,1,1-.548-.548.548.548,0,0,1,.548.548" transform="translate(-115.752 -50.784)"/><path class="c" d="M129.333,57.1a.685.685,0,1,1,.685-.685.686.686,0,0,1-.685.685m0-1.1a.411.411,0,1,0,.411.411.412.412,0,0,0-.411-.411" transform="translate(-114.64 -49.671)"/><path class="e" d="M112.57,106.266a.548.548,0,1,1-.548-.548.548.548,0,0,1,.548.548" transform="translate(-99.335 -94.219)"/><path class="c" d="M110.909,105.838a.685.685,0,1,1,.685-.685.686.686,0,0,1-.685.685m0-1.1a.411.411,0,1,0,.411.411.412.412,0,0,0-.411-.411" transform="translate(-98.222 -93.107)"/><path class="e" d="M140.429,92.693a.548.548,0,1,1-.548-.548.548.548,0,0,1,.548.548" transform="translate(-124.16 -82.123)"/><path class="c" d="M138.768,92.265a.685.685,0,1,1,.685-.685.686.686,0,0,1-.685.685m0-1.1a.411.411,0,1,0,.411.411.412.412,0,0,0-.411-.411" transform="translate(-123.047 -81.01)"/><path class="e" d="M109.9,136.324a.548.548,0,1,1-.548-.548.548.548,0,0,1,.548.548" transform="translate(-96.954 -121.009)"/><path class="c" d="M108.237,135.9a.685.685,0,1,1,.685-.685.686.686,0,0,1-.685.685m0-1.1a.411.411,0,1,0,.411.411.412.412,0,0,0-.411-.411" transform="translate(-95.841 -119.896)"/></svg>